<svg xmlns="http://www.w3.org/2000/svg"><defs><font id="FontAwesome5Pro-Light" horiz-adv-x="512"><font-face font-family="Font Awesome 5 Pro Light" font-weight="300" units-per-em="512" panose-1="2 0 3 3 0 0 0 0 0 0" ascent="448" descent="-64" bbox="-7.14551 -71.1455 672 450" underline-thickness="25" underline-position="-50" unicode-range="U+0020-F958"/><glyph glyph-name="glass-martini" unicode="" d="M502.05 390.4L272 160.36V-32h53.32c14.73 0 26.67-11.94 26.67-26.67 0-2.94-2.38-5.33-5.33-5.33H165.33c-2.94 0-5.33 2.38-5.33 5.33C160-43.94 171.94-32 186.67-32H240v192.36L9.95 390.4C-11.3 411.66 3.75 448 33.8 448h444.4c30.05 0 45.1-36.34 23.85-57.6zM256.06 189.67L418.39 352l61.03 61.04c.52.51.83.82.38 1.89-.44 1.07-.88 1.07-1.6 1.07H33.8c-.72 0-1.16 0-1.599-1.08-.44-1.07-.13-1.38.38-1.89z"/><glyph glyph-name="music" unicode="" d="M481.44 448c16.25 0 30.56-13.75 30.56-32V80c0-44.19-43-80-96-80s-96 35.81-96 80 43 80 96 80c24.69 0 47-8 64-20.75V288l-288-96V16c0-44.19-43-80-96-80S0-28.19 0 16s43 80 96 80c24.69 0 47-8 64-20.75V320c0 14 8.72 26.28 21.41 30.5l290.78 96c2.485.826 6.63 1.498 9.25 1.5zM96-32c34.69 0 64 22 64 48s-29.31 48-64 48-64-22-64-48 29.31-48 64-48zm320 64c34.69 0 64 22 64 48s-29.31 48-64 48-64-22-64-48 29.31-48 64-48zm64 289.72v93.66l-288.56-95.26V320h.56v-94.28z"/><glyph glyph-name="search" unicode="" d="M508.5-33.6c4.7-4.7 4.7-12.3 0-17l-9.9-9.9c-4.7-4.7-12.3-4.7-17 0l-129 129c-2.2 2.3-3.5 5.3-3.5 8.5v10.2C312 53 262.5 32 208 32 93.1 32 0 125.1 0 240s93.1 208 208 208 208-93.1 208-208c0-54.5-21-104-55.3-141.1H371c3.2 0 6.2-1.2 8.5-3.5zM208 64c97.3 0 176 78.7 176 176s-78.7 176-176 176S32 337.3 32 240 110.7 64 208 64z"/><glyph glyph-name="heart" unicode="" d="M462.3 385.3c62.8-53.6 66.1-149.8 9.7-207.8L278.5-22.3c-6.2-6.5-14.4-9.7-22.6-9.7-8.2 0-16.4 3.3-22.6 9.7L39.8 177.5c-56.2 58-52.9 154.2 9.9 207.8 63.5 54 145.8 28.6 186.6-13.6l19.7-20.3 19.7 20.4c50.6 52.2 132.1 59.9 186.6 13.5zm-13.1-185.6c38.4 39.7 46.3 115.2-7.7 161.2-54.6 46.5-119.6 12.5-142.8-11.5L256 305.3l-42.7 44.1c-23.6 24.4-88 58.3-142.8 11.5-54.1-46.1-46.1-121.601-7.7-161.2L256.4-.1z"/><glyph glyph-name="star" unicode="" horiz-adv-x="576" d="M528.1 276.5c26.2-3.8 36.7-36.1 17.7-54.6l-105.7-103 25-145.5c4.5-26.3-23.199-45.9-46.4-33.7L288 8.4 157.3-60.3c-23.2-12.3-50.899 7.4-46.399 33.7l25 145.5-105.7 103c-19 18.5-8.5 50.8 17.7 54.6l146.1 21.3 65.3 132.4c11.8 23.9 45.7 23.6 57.4 0l65.3-132.4zM405.8 130.1l117.7 114.801-162.7 23.6L288 416l-72.8-147.5-162.7-23.6L170.3 130 142.5-32 288 44.5l145.6-76.4z"/><glyph glyph-name="user" unicode="" horiz-adv-x="448" d="M313.6 160C387.8 160 448 99.8 448 25.6V-16c0-26.5-21.5-48-48-48H48C21.5-64 0-42.5 0-16v41.6C0 99.8 60.2 160 134.4 160c28.8 0 42.5-16 89.6-16s60.9 16 89.6 16zM416-16v41.6C416 82.1 370.1 128 313.6 128c-19.6 0-39.2-16-89.6-16-50.5 0-70 16-89.6 16C77.9 128 32 82.1 32 25.6V-16c0-8.8 7.201-16 16-16h352c8.8 0 16 7.2 16 16zM224 192c-70.7 0-128 57.3-128 128s57.3 128 128 128 128-57.3 128-128-57.3-128-128-128zm0 224c-52.9 0-96-43.1-96-96s43.1-96 96-96 96 43.1 96 96-43.1 96-96 96z"/><glyph glyph-name="film" unicode="" d="M488 384c13.3 0 24-10.7 24-24V24c0-13.3-10.7-24-24-24h-8v20c0 6.6-5.4 12-12 12h-40c-6.6 0-12-5.4-12-12V0H96v20c0 6.6-5.4 12-12 12H44c-6.6 0-12-5.4-12-12V0h-8C10.7 0 0 10.7 0 24v336c0 13.3 10.7 24 24 24h8v-20c0-6.6 5.4-12 12-12h40c6.6 0 12 5.4 12 12v20h320v-20c0-6.6 5.4-12 12-12h40c6.6 0 12 5.4 12 12v20h8zM96 76v40c0 6.6-5.4 12-12 12H44c-6.6 0-12-5.4-12-12V76c0-6.6 5.4-12 12-12h40c6.6 0 12 5.4 12 12zm0 96v40c0 6.6-5.4 12-12 12H44c-6.6 0-12-5.4-12-12v-40c0-6.6 5.4-12 12-12h40c6.6 0 12 5.4 12 12zm0 96v40c0 6.6-5.4 12-12 12H44c-6.6 0-12-5.4-12-12v-40c0-6.6 5.4-12 12-12h40c6.6 0 12 5.4 12 12zM384 44v120c0 6.6-5.4 12-12 12H140c-6.6 0-12-5.4-12-12V44c0-6.6 5.4-12 12-12h232c6.6 0 12 5.4 12 12zm0 176v120c0 6.6-5.4 12-12 12H140c-6.6 0-12-5.4-12-12V220c0-6.6 5.4-12 12-12h232c6.6 0 12 5.4 12 12zm96-144v40c0 6.6-5.4 12-12 12h-40c-6.6 0-12-5.4-12-12V76c0-6.6 5.4-12 12-12h40c6.6 0 12 5.4 12 12zm0 96v40c0 6.6-5.4 12-12 12h-40c-6.6 0-12-5.4-12-12v-40c0-6.6 5.4-12 12-12h40c6.6 0 12 5.4 12 12zm0 96v40c0 6.6-5.4 12-12 12h-40c-6.6 0-12-5.4-12-12v-40c0-6.6 5.4-12 12-12h40c6.6 0 12 5.4 12 12z"/><glyph glyph-name="th-large" unicode="" d="M0 368c0 26.51 21.49 48 48 48h416c26.51 0 48-21.49 48-48V16c0-26.51-21.49-48-48-48H48C21.49-32 0-10.51 0 16v352zm240 16H48c-8.837 0-16-7.163-16-16V208h208v176zM32 16c0-8.837 7.163-16 16-16h192v176H32V16zM272 0h192c8.837 0 16 7.163 16 16v160H272V0zm208 208v160c0 8.837-7.163 16-16 16H272V208h208z"/><glyph glyph-name="th" unicode="" d="M0 368c0 26.51 21.49 48 48 48h416c26.51 0 48-21.49 48-48V16c0-26.51-21.49-48-48-48H48C21.49-32 0-10.51 0 16v352zm320 16H192V277.333h128V384zm160-245.333v106.666H352V138.667h128zm-160 0v106.666H192V138.667h128zM32 245.333V138.666h128v106.667H32zM160 384H48c-8.837 0-16-7.163-16-16v-90.667h128V384zM32 16c0-8.837 7.163-16 16-16h112v106.667H32V16zM192 0h128v106.667H192V0zm160 0h112c8.837 0 16 7.163 16 16v90.667H352V0zm128 277.333V368c0 8.837-7.163 16-16 16H352V277.333h128z"/><glyph glyph-name="th-list" unicode="" d="M0 368c0 26.51 21.49 48 48 48h416c26.51 0 48-21.49 48-48V16c0-26.51-21.49-48-48-48H48C21.49-32 0-10.51 0 16v352zm480 0c0 8.837-7.163 16-16 16H192V277.333h288V368zm0-229.333v106.666H192V138.667h288zM32 245.333V138.666h128v106.667H32zM160 384H48c-8.837 0-16-7.163-16-16v-90.667h128V384zM32 16c0-8.837 7.163-16 16-16h112v106.667H32V16zM192 0h272c8.837 0 16 7.163 16 16v90.667H192V0z"/><glyph glyph-name="check" unicode="" horiz-adv-x="448" d="M413.505 356.049c4.687 4.687 12.284 4.687 16.97 0l11.314-11.313c4.686-4.688 4.686-12.286 0-16.972L141.976 27.952c-4.686-4.687-12.284-4.687-16.97 0L6.212 146.746c-4.686 4.686-4.686 12.285 0 16.97l11.313 11.314c4.687 4.686 12.284 4.686 16.97 0l98.996-98.995z"/><glyph glyph-name="times" unicode="" horiz-adv-x="320" d="M193.94 192L317.65 68.29c3.12-3.12 3.12-8.19 0-11.31l-22.63-22.63c-3.12-3.12-8.19-3.12-11.31 0L262.56 55.5 160 158.06 36.28 34.35c-3.121-3.12-8.191-3.12-11.311 0L2.339 56.98c-3.12 3.12-3.12 8.19 0 11.31L126.059 192 2.339 315.72c-3.12 3.12-3.12 8.19 0 11.31l22.64 22.63c3.12 3.12 8.19 3.12 11.31 0l123.71-123.72 123.71 123.71c3.12 3.12 8.19 3.12 11.31 0l22.63-22.63c3.12-3.12 3.12-8.19 0-11.31l-21.15-21.15z"/><glyph glyph-name="search-plus" unicode="" d="M319.8 244v-8c0-6.6-5.4-12-12-12h-84v-84c0-6.6-5.4-12-12-12h-8c-6.6 0-12 5.4-12 12v84h-84c-6.6 0-12 5.4-12 12v8c0 6.6 5.4 12 12 12h84v84c0 6.6 5.4 12 12 12h8c6.6 0 12-5.4 12-12v-84h84c6.6 0 12-5.4 12-12zM508.3-49L497-60.3c-4.7-4.7-12.3-4.7-17 0l-129 129c-2.3 2.3-3.5 5.3-3.5 8.5v8.5C310.6 52.3 261.7 32 208 32 93.8 32 1.5 123.1 0 237.3c-1.5 117 93.7 212.2 210.7 210.7C324.9 446.5 416 354.2 416 240c0-53.7-20.3-102.6-53.7-139.5h8.5c3.2 0 6.2-1.3 8.5-3.5l129-129c4.7-4.7 4.7-12.3 0-17zM384 240c0 97.3-78.7 176-176 176S32 337.3 32 240 110.7 64 208 64s176 78.7 176 176z"/><glyph glyph-name="search-minus" unicode="" d="M307.8 224.2h-200c-6.6 0-12 5.4-12 12v8c0 6.6 5.4 12 12 12h200c6.6 0 12-5.4 12-12v-8c0-6.6-5.4-12-12-12zM508.3-49L497-60.3c-4.7-4.7-12.3-4.7-17 0l-129 129c-2.3 2.3-3.5 5.3-3.5 8.5v8.5C310.6 52.3 261.7 32 208 32 93.8 32 1.5 123.1 0 237.3c-1.5 117 93.7 212.2 210.7 210.7C324.9 446.5 416 354.2 416 240c0-53.7-20.3-102.6-53.7-139.5h8.5c3.2 0 6.2-1.3 8.5-3.5l129-129c4.7-4.7 4.7-12.3 0-17zM384 240c0 97.3-78.7 176-176 176S32 337.3 32 240 110.7 64 208 64s176 78.7 176 176z"/><glyph glyph-name="power-off" unicode="" d="M388.5 401.7C457.9 357.7 504 280.2 504 192 504 55.2 393.2-55.7 256.5-56 120-56.3 8.2 55 8 191.6 7.9 280 54 357.701 123.5 401.701c5.8 3.7 13.5 1.8 16.9-4.2l3.9-7c3.1-5.6 1.3-12.6-4.1-16C79.9 336 40 268.4 40 192 40 72.1 137.3-24 256-24c119.9 0 216 97.3 216 216 0 77-40.1 144.2-100.3 182.4-5.4 3.4-7.2 10.5-4.1 16l3.9 7c3.4 6.1 11.2 7.9 17 4.3zM272 172c0-6.6-5.4-12-12-12h-8c-6.6 0-12 5.4-12 12v264c0 6.6 5.4 12 12 12h8c6.6 0 12-5.4 12-12V172z"/><glyph glyph-name="signal" unicode="" horiz-adv-x="640" d="M208 160c4.42 0 8-3.58 8-8V-56c0-4.42-3.58-8-8-8h-32c-4.42 0-8 3.58-8 8v208c0 4.42 3.58 8 8 8h32zM80 64c4.42 0 8-3.58 8-8V-56c0-4.42-3.58-8-8-8H48c-4.42 0-8 3.58-8 8V56c0 4.42 3.58 8 8 8h32zm256 192c4.42 0 8-3.58 8-8V-56c0-4.42-3.58-8-8-8h-32c-4.42 0-8 3.58-8 8v304c0 4.42 3.58 8 8 8h32zm128 96c4.42 0 8-3.58 8-8V-56c0-4.42-3.58-8-8-8h-32c-4.42 0-8 3.58-8 8v400c0 4.42 3.58 8 8 8h32zm128 96c4.42 0 8-3.58 8-8V-56c0-4.42-3.58-8-8-8h-32c-4.42 0-8 3.58-8 8v496c0 4.42 3.58 8 8 8h32z"/><glyph glyph-name="cog" unicode="" d="M482.696 148.724c9.576-5.528 14.194-16.901 11.046-27.501-11.214-37.748-31.175-71.728-57.535-99.595-7.634-8.071-19.818-9.837-29.438-4.283l-32.561 18.798c-10.828-8.24-29.796-19.206-42.34-24.479V-25.95c0-11.13-7.653-20.804-18.484-23.367-37.651-8.91-77.125-8.908-114.77 0-10.832 2.563-18.484 12.237-18.484 23.367v37.614c-12.544 5.273-31.512 16.239-42.339 24.479L105.23 17.345c-9.62-5.553-21.804-3.787-29.438 4.283-26.36 27.867-46.321 61.847-57.535 99.595-3.149 10.6 1.47 21.974 11.046 27.501l32.61 18.827c-.848 6.722-1.537 17.675-1.537 24.45 0 6.775.689 17.728 1.537 24.45l-32.61 18.827c-9.576 5.528-14.194 16.901-11.046 27.5 11.214 37.749 31.175 71.728 57.535 99.595 7.633 8.07 19.817 9.836 29.438 4.283l32.561-18.798c10.827 8.24 29.795 19.207 42.339 24.48v37.613c0 11.131 7.653 20.804 18.484 23.368 37.652 8.909 77.126 8.908 114.77 0 10.832-2.564 18.485-12.238 18.485-23.368v-37.614c12.543-5.272 31.51-16.24 42.339-24.48l32.561 18.799c9.62 5.553 21.804 3.788 29.438-4.283 26.36-27.867 46.321-61.845 57.535-99.594 3.148-10.6-1.47-21.974-11.046-27.501l-32.61-18.828c.848-6.721 1.537-17.674 1.537-24.449 0-6.775-.689-17.728-1.537-24.45zM417.217 48.263c19.71 22.089 34.69 47.989 43.93 75.957l-46.33 26.74c6.539 35.434 6.536 46.653 0 82.079l46.33 26.74c-9.24 27.97-24.221 53.87-43.93 75.969l-46.309-26.76c-27.374 23.432-37.061 29.064-71.039 41.069v53.48c-11.981 2.475-31.635 4.483-43.869 4.483s-31.888-2.008-43.869-4.484v-53.478c-33.976-12.004-43.662-17.635-71.039-41.069l-46.309 26.76c-19.709-22.1-34.69-48-43.93-75.969l46.33-26.74c-6.538-35.435-6.534-46.662 0-82.08l-46.33-26.74c9.24-27.968 24.22-53.867 43.93-75.957l46.309 26.74c27.685-23.664 37.418-29.18 71.04-41.059v-53.48c11.98-2.47 31.634-4.477 43.868-4.477s31.888 2.006 43.87 4.478v53.48c34.479 12.182 44.05 17.987 71.038 41.058zM256 288c52.935 0 96-43.065 96-96s-43.065-96-96-96-96 43.065-96 96 43.065 96 96 96zm0-160c35.29 0 64 28.71 64 64s-28.71 64-64 64-64-28.71-64-64 28.71-64 64-64z"/><glyph glyph-name="home" unicode="" horiz-adv-x="576" d="M541 218.84c1.651-1.325 2.991-4.12 2.991-6.237 0-1.564-.798-3.818-1.781-5.033l-10.1-12.41c-1.326-1.629-4.105-2.95-6.206-2.95-1.567 0-3.827.802-5.044 1.79L480 227.38V-15.67c0-8.832-7.168-16-16-16L336-32c-8.832 0-16 7.168-16 16v128.08l-64 .3v-128c0-8.832-7.168-16-16-16H112c-8.832 0-16 7.168-16 16v243L55.14 194c-1.21-.969-3.45-1.755-5-1.755-2.097 0-4.874 1.32-6.2 2.945l-10.1 12.41c-.986 1.215-1.786 3.473-1.786 5.039 0 2.097 1.32 4.876 2.946 6.2l232.81 190.022c4.879 3.933 13.924 7.127 20.19 7.127s15.312-3.194 20.19-7.127L448 294.74v51.33c0 3.311 2.69 6 6 6h20c3.312 0 6-2.689 6-6v-77.4zM447.89.25l.11 253.24-160 130.569L128 253.49V.25h95.99v128.14c0 8.832 7.169 16 16 16h.05l96-.27c8.778-.054 15.923-7.222 15.95-16V-.05l96 .3h-.1z"/><glyph glyph-name="clock" unicode="" d="M256 440c137 0 248-111 248-248S393-56 256-56 8 55 8 192s111 248 248 248zm216-248c0 119.9-97.3 216-216 216-119.9 0-216-97.3-216-216C40 72.1 137.3-24 256-24c119.9 0 216 97.3 216 216zm-148.9-88.3l-81.2 59c-3.1 2.3-4.9 5.9-4.9 9.7V332c0 6.6 5.4 12 12 12h14c6.6 0 12-5.4 12-12V185.7l70.5-51.3c5.4-3.9 6.5-11.4 2.6-16.8l-8.2-11.3c-3.9-5.3-11.4-6.5-16.8-2.6z"/><glyph glyph-name="road" unicode="" horiz-adv-x="576" d="M279.47 256c-5.81 0-10.35 6.17-9.74 13.26l3.75 43.58c.35 4.07 3.15 7.16 6.49 7.16h16.05c3.34 0 6.14-3.09 6.49-7.16l3.75-43.58c.62-7.09-3.92-13.26-9.73-13.26h-17.06zm-6.02-112c-7.75 0-13.79 8.23-12.97 17.68l4.13 48c.7 8.14 6.3 14.32 12.98 14.32h20.83c6.68 0 12.28-6.18 12.98-14.32l4.13-48c.81-9.45-5.23-17.68-12.98-17.68h-29.1zm10.66 208c-3.88 0-6.9 4.12-6.49 8.84l1.38 16c.35 4.07 3.15 7.16 6.49 7.16h5.03c3.34 0 6.14-3.09 6.49-7.16l1.38-16c.41-4.72-2.61-8.84-6.49-8.84h-7.79zm23.95-240c6.68 0 12.28-6.18 12.97-14.32l6.89-80C328.73 8.23 322.69 0 314.94 0h-53.89c-7.75 0-13.79 8.23-12.98 17.68l6.89 80c.7 8.14 6.3 14.32 12.98 14.32h40.12zM157.35 384c5.33 0 9.17-5.12 7.68-10.24L59.38 11.52A15.997 15.997 0 0044.02 0h-28C4.6 0-3.139 11.62 1.25 22.15l148.72 356.93c1.132 2.717 4.436 4.92 7.378 4.92h.003zm417.4-361.85C579.15 11.62 571.4 0 559.99 0h-28.003c-6.624 0-13.504 5.161-15.357 11.52L410.98 373.76c-1.49 5.12 2.35 10.24 7.68 10.24 2.942-.001 6.248-2.205 7.38-4.92z"/><glyph glyph-name="download" unicode="" d="M452 16c0-11-9-20-20-20s-20 9-20 20 9 20 20 20 20-9 20-20zm-84 20c11 0 20-9 20-20s-9-20-20-20-20 9-20 20 9 20 20 20zm144 48V-20c0-24.3-19.7-44-44-44H44C19.7-64 0-44.3 0-20V84c0 24.3 19.7 44 44 44h99.4L87 184.4c-25.2 25.2-7.3 68.3 28.3 68.3H168V408c0 22.1 17.9 40 40 40h96c22.1 0 40-17.9 40-40V252.7h52.7c35.6 0 53.4-43.1 28.3-68.3L368.6 128H468c24.3 0 44-19.7 44-44zM250.3 66.3c3.1-3.1 8.2-3.1 11.3 0L402.3 207c5 5 1.5 13.7-5.7 13.7H312V408c0 4.4-3.6 8-8 8h-96c-4.4 0-8-3.6-8-8V220.7h-84.7c-7.1 0-10.7-8.6-5.7-13.7zM480 84c0 6.6-5.4 12-12 12H336.6l-52.3-52.3c-15.6-15.6-41-15.6-56.6 0L175.4 96H44c-6.599 0-12-5.4-12-12V-20c0-6.6 5.401-12 12-12h424c6.6 0 12 5.4 12 12V84z"/><glyph glyph-name="inbox" unicode="" horiz-adv-x="576" d="M566.819 220.623c5.067-6.968 9.18-19.615 9.18-28.231V48c0-26.51-21.49-48-48-48H48C21.49 0 0 21.49 0 48v144.392c0 8.616 4.114 21.263 9.181 28.231l104.443 143.609C121.56 375.143 138.95 384 152.442 384h271.114c13.493 0 30.884-8.857 38.82-19.768zM139.503 345.411L51.204 224h136.573l32-64h136.445l32 64h136.573l-88.298 121.411a16.048 16.048 0 01-12.94 6.589H152.443c-4.494-.007-10.291-2.96-12.94-6.589zM544 176c0 8.837-7.163 16-16 16H408l-32-64H200l-32 64H48c-8.837 0-16-7.163-16-16V48c0-8.823 7.178-16 16-16h480c8.822 0 16 7.177 16 16v128z"/><glyph glyph-name="redo" unicode="" d="M492 440c6.627 0 12-5.373 12-12V268c0-6.627-5.373-12-12-12H332c-6.627 0-12 5.373-12 12v10c0 6.627 5.373 12 12 12h114.289C410.737 358.923 338.862 406 256 406c-118.669 0-214-96.256-214-214C42 73.331 138.256-22 256-22c55.065 0 105.218 20.762 143.109 54.864 4.732 4.26 11.979 4.05 16.481-.454l7.07-7.07c4.872-4.871 4.63-12.814-.483-17.432C378.202-31.813 319.925-56 256-56 119.165-56 8.213 54.82 8 191.604 7.786 327.992 118.82 439.574 255.206 440c91.554.286 171.597-49.046 214.793-122.624v110.625c0 6.627 5.373 12 12 12h10z"/><glyph glyph-name="sync" unicode="" d="M492 440c6.627 0 12-5.373 12-12V268c0-6.627-5.373-12-12-12H332c-6.627 0-12 5.373-12 12v10c0 6.627 5.373 12 12 12h114.289C410.737 358.923 338.862 406 256 406c-114.903 0-207.843-90.216-213.706-202.707C41.963 196.949 36.67 192 30.317 192H20.301c-6.826 0-12.33 5.69-11.991 12.507C14.824 335.662 123.228 440 256 440c91.223 0 170.929-49.26 214-122.627V428c0 6.627 5.373 12 12 12h10zm-.301-248c6.826 0 12.33-5.69 11.991-12.507C497.176 48.338 388.773-56 256-56 164.778-56 85.071-6.74 42 66.627V-44c0-6.627-5.373-12-12-12H20c-6.627 0-12 5.373-12 12v160c0 6.627 5.373 12 12 12h160c6.627 0 12-5.373 12-12v-10c0-6.627-5.373-12-12-12H65.701c35.627-69.048 107.69-116 190.3-116 114.545 0 207.84 89.842 213.706 202.707.33 6.344 5.625 11.293 11.977 11.293h10.015z"/><glyph glyph-name="list-alt" unicode="" d="M464 384H48c-8.823 0-16-7.178-16-16V16c0-8.822 7.177-16 16-16h416c8.823 0 16 7.178 16 16v352c0 8.822-7.177 16-16 16zm0 32c26.51 0 48-21.49 48-48V16c0-26.51-21.49-48-48-48H48C21.49-32 0-10.51 0 16v352c0 26.51 21.49 48 48 48h416zm-336-96c17.673 0 32-14.327 32-32s-14.327-32-32-32-32 14.327-32 32 14.327 32 32 32zm0-96c17.673 0 32-14.327 32-32s-14.327-32-32-32-32 14.327-32 32 14.327 32 32 32zm0-96c17.673 0 32-14.327 32-32s-14.327-32-32-32-32 14.327-32 32 14.327 32 32 32zm288 148c0-3.312-2.688-6-6-6H198c-3.312 0-6 2.688-6 6v24c0 3.312 2.688 6 6 6h212c3.312 0 6-2.688 6-6v-24zm0-96c0-3.312-2.688-6-6-6H198c-3.312 0-6 2.688-6 6v24c0 3.312 2.688 6 6 6h212c3.312 0 6-2.688 6-6v-24zm0-96c0-3.312-2.688-6-6-6H198c-3.312 0-6 2.688-6 6v24c0 3.312 2.688 6 6 6h212c3.312 0 6-2.688 6-6V84z"/><glyph glyph-name="lock" unicode="" horiz-adv-x="448" d="M400 224c26.5 0 48-21.5 48-48V-16c0-26.5-21.5-48-48-48H48C21.5-64 0-42.5 0-16v192c0 26.5 21.5 48 48 48h16v64c0 88.4 72 160.3 160.5 160 88.4-.3 159.5-73.1 159.5-161.5V224h16zM96 288v-64h256v64c0 70.6-57.4 128-128 128S96 358.6 96 288zM400-32c8.8 0 16 7.2 16 16v192c0 8.8-7.2 16-16 16H48c-8.8 0-16-7.2-16-16V-16c0-8.8 7.2-16 16-16h352z"/><glyph glyph-name="flag" unicode="" d="M344.348 373.333c47.268 0 96.75 19.822 133.53 36.906 15.916 7.392 34.122-4.21 34.122-21.76V126.812c0-7.95-3.925-15.41-10.514-19.86C463.411 81.237 422.788 64 371.477 64c-69.923 0-115.22 34.667-171.825 34.667-63.585 0-104.229-14.525-135.652-29.064V-52c0-6.627-5.373-12-12-12h-8c-6.627 0-12 5.373-12 12v406.742C12.553 361.617-1.146 380.66.077 402.728 1.433 427.249 21.533 447 46.072 447.96c29.736 1.165 53.481-24.675 49.485-54.41 23.29 9.126 48.479 14.448 76.966 14.448 69.924 0 115.22-34.667 171.825-34.667zM48 420c-11.028 0-20-8.972-20-20s8.972-20 20-20 20 8.972 20 20-8.972 20-20 20zm432-289.333V376c-33.435-15.854-89.732-34.667-135.652-34.667-63.58 0-108.211 34.667-171.825 34.667-43.975 0-85.405-17.97-108.522-34.667V104.667c33.373 15.814 89.636 26 135.652 26 63.58 0 108.211-34.667 171.825-34.667 43.975 0 85.405 17.97 108.522 34.667z"/><glyph glyph-name="headphones" unicode="" d="M256 416c141.503 0 256-114.518 256-256v-51.428c0-5.19-3.68-11.452-8.213-13.978l-23.804-13.262c.005-.444.017-.887.017-1.332 0-61.856-50.144-112-112-112h-24c-13.255 0-24 10.745-24 24v176c0 13.255 10.745 24 24 24h24c49.676 0 91.79-32.343 106.453-77.117l5.547 3.09V160c0 123.816-100.204 224-224 224-123.816 0-224-100.205-224-224v-42.027l5.547-3.091C52.21 159.657 94.325 192 144 192h24c13.255 0 24-10.745 24-24V-8c0-13.255-10.745-24-24-24h-24C82.143-32 32 18.144 32 80c0 .445.011.888.016 1.331L8.213 94.593C3.679 97.119 0 103.382 0 108.57V160c0 141.503 114.517 256 256 256zM144 160c-44.112 0-80-35.888-80-80S99.888 0 144 0h16v160h-16zM368 0c44.112 0 80 35.888 80 80s-35.888 80-80 80h-16V0h16z"/><glyph glyph-name="volume-off" unicode="" horiz-adv-x="256" d="M231.81 384c12.33 0 24.19-9.49 24.19-24V24c0-14.48-11.86-24-24.19-24h-.089c-5.424 0-12.915 3.136-16.72 7L126.06 96H24c-13.248 0-24 10.752-24 24v144c0 13.248 10.752 24 24 24h102.03l89 89c3.802 3.864 11.287 7 16.708 7h.071zM224 43.33v297.34L139.31 256H32V128h107.31z"/><glyph glyph-name="volume-down" unicode="" horiz-adv-x="384" d="M342.91 253.43C368.25 241.29 384 217.36 384 191s-15.75-50.28-41.09-62.42c-7.8-3.79-17.48-.55-21.34 7.5-3.81 7.96-.44 17.53 7.53 21.34C343.22 164.2 352 177.06 352 191s-8.78 26.8-22.9 33.59c-7.97 3.81-11.34 13.37-7.53 21.34 3.84 7.98 13.53 11.3 21.34 7.5zM231.81 383c12.32 0 24.19-9.51 24.19-24.02V23.02C256 8.52 244.14-1 231.81-1c-5.9 0-11.91 2.18-16.78 7.05L126.06 95H24c-13.26 0-24 10.75-24 24v144c0 13.26 10.74 24 24 24h102.06l88.97 88.95c4.86 4.87 10.87 7.05 16.78 7.05zM224 42.33v297.34L139.31 255H32V127h107.31z"/><glyph glyph-name="volume-up" unicode="" horiz-adv-x="576" d="M342.91 254.43C368.25 242.29 384 218.36 384 192s-15.75-50.28-41.09-62.42c-7.8-3.79-17.48-.55-21.34 7.5-3.81 7.96-.44 17.53 7.53 21.34C343.22 165.2 352 178.06 352 192s-8.78 26.8-22.9 33.59c-7.97 3.81-11.34 13.37-7.53 21.34 3.84 7.98 13.53 11.3 21.34 7.5zM231.81 384c12.32 0 24.19-9.51 24.19-24.02V24.02C256 9.52 244.14 0 231.81 0c-5.9 0-11.91 2.18-16.78 7.05L126.06 96H24c-13.26 0-24 10.75-24 24v144c0 13.26 10.74 24 24 24h102.06l88.97 88.95c4.86 4.87 10.87 7.05 16.78 7.05zM224 43.33v297.34L139.31 256H32V128h107.31zm197.51 402.84C516.78 396.07 576 298.68 576 192.01c0-106.68-59.22-204.069-154.49-254.16-7.98-4.14-17.56-1.05-21.66 6.7-4.13 7.81-1.12 17.5 6.7 21.61 84.76 44.55 137.4 131.1 137.4 225.85s-52.64 181.3-137.4 225.852c-7.83 4.109-10.83 13.8-6.7 21.609 4.13 7.82 13.77 10.78 21.66 6.7zM480 192.01c0-66.13-34.02-126.63-88.81-157.87-7.98-4.55-17.74-1.49-22.04 5.89-4.44 7.66-1.76 17.44 5.96 21.86 44.77 25.54 72.61 75.4 72.61 130.12s-27.84 104.57-72.61 130.12c-7.73 4.42-10.41 14.2-5.96 21.86 4.45 7.67 14.35 10.27 22.04 5.89C445.98 318.63 480 258.13 480 192.01z"/><glyph glyph-name="qrcode" unicode="" horiz-adv-x="448" d="M0 224v192h192V224H0zm32 160V256h128v128H32zm224 32h192V224H256v192zm160-160v128H288V256h128zM0-32v192h192V-32H0zm32 160V0h128v128H32zm32 224h64v-64H64v64zm320-64h-64v64h64v-64zM64 96h64V32H64v64zm352 64h32V32H320v32h-32v-96h-32v192h96v-32h64v32zm0-160h32v-32h-32V0zm-64 0h32v-32h-32V0z"/><glyph glyph-name="barcode" unicode="" d="M0 0v384h18V0H0zm26.857.273V384H36V.273h-9.143zM54 .273V384h8.857V.273H54zm44.857 0V384h8.857V.273h-8.857zm36 0V384h17.714V.273h-17.714zm44.857 0V384h8.857V.273h-8.857zm18 0V384h8.857V.273h-8.857zm18 0V384h8.857V.273h-8.857zm35.715 0V384h18V.273h-18zm44.857 0V384h18V.273h-18zm35.999 0V384h18.001V.273h-18.001zm36.001 0V384h18.001V.273h-18.001zm26.857 0V384h18V.273h-18zm45.143 0V384h26.856V.273h-26.856zm35.714 0V384h9.143V.273H476zM494 0v384h18V0h-18z"/><glyph glyph-name="tag" unicode="" d="M497.941 222.059c18.744-18.744 18.744-49.137 0-67.882L293.823-49.94c-18.745-18.745-49.138-18.744-67.882 0L14.058 161.942C6.298 169.702 0 184.908 0 195.882v204.119c0 26.51 21.49 48 48 48h204.118c10.974 0 26.18-6.3 33.94-14.059zm-22.627-45.255c6.237 6.238 6.237 16.39 0 22.628L263.431 411.315A15.896 15.896 0 01252.118 416H48c-8.823 0-16-7.177-16-16V195.84c0-3.649 2.1-8.698 4.685-11.27L248.57-27.314c6.252-6.253 16.384-6.242 22.627 0zM144 324c-11.028 0-20-8.972-20-20s8.972-20 20-20 20 8.972 20 20-8.972 20-20 20zm0 28c26.51 0 48-21.49 48-48s-21.49-48-48-48-48 21.49-48 48 21.49 48 48 48z"/><glyph glyph-name="tags" unicode="" horiz-adv-x="640" d="M625.941 154.177L421.823-49.941c-18.746-18.745-49.139-18.744-67.882 0l-1.775 1.775 22.627 22.627 1.775-1.775c6.253-6.253 16.384-6.242 22.627 0l204.118 204.118c6.238 6.24 6.238 16.39 0 22.627L391.43 411.315c-2.572 2.586-7.62 4.686-11.27 4.686h-19.592l-32 32h51.549c10.974 0 26.18-6.3 33.94-14.06L625.94 222.06c18.745-18.744 18.745-49.137.001-67.882zM252.118 416H48c-8.822 0-16-7.178-16-16V195.882c0-4.273 1.664-8.292 4.686-11.313L248.569-27.315c6.252-6.253 16.383-6.243 22.627 0l204.118 204.117c6.237 6.24 6.237 16.39 0 22.627L263.43 411.314c-2.573 2.586-7.622 4.686-11.27 4.686h-.043zm0 32c10.975 0 26.18-6.299 33.94-14.059l211.883-211.883c18.745-18.744 18.745-49.136 0-67.881L293.823-49.941c-18.746-18.746-49.138-18.745-67.881 0L14.059 161.942C6.299 169.702 0 184.907 0 195.882V400c0 26.51 21.49 48 48 48h204.118zM144 324c-11.028 0-20-8.972-20-20s8.972-20 20-20 20 8.972 20 20-8.972 20-20 20zm0 28c26.51 0 48-21.49 48-48s-21.49-48-48-48-48 21.49-48 48 21.49 48 48 48z"/><glyph glyph-name="book" unicode="" horiz-adv-x="448" d="M356 288H188c-6.6 0-12 5.4-12 12v8c0 6.6 5.4 12 12 12h168c6.6 0 12-5.4 12-12v-8c0-6.6-5.4-12-12-12zm12-52c0-6.6-5.4-12-12-12H188c-6.6 0-12 5.4-12 12v8c0 6.6 5.4 12 12 12h168c6.6 0 12-5.4 12-12v-8zm64.7-268h3.3c6.6 0 12-5.4 12-12v-8c0-6.6-5.4-12-12-12H80C35.8-64 0-28.2 0 16v352c0 44.2 35.8 80 80 80h344c13.3 0 24-10.7 24-24V56c0-10-6.2-18.6-14.9-22.2-3.6-16.1-4.4-45.6-.4-65.8zM128 64h288v352H128V64zM32 48c13.4 10 30 16 48 16h16v352H80c-26.5 0-48-21.5-48-48V48zm372.3-80c-3.1 20.4-2.9 45.2 0 64H80c-64 0-64-64 0-64h324.3z"/><glyph glyph-name="bookmark" unicode="" horiz-adv-x="384" d="M336 448c26.51 0 48-21.49 48-48V-64L192 48 0-64v464c0 26.51 21.49 48 48 48h288zM352-8.287V400c0 8.822-7.178 16-16 16H48c-8.822 0-16-7.178-16-16V-8.287l160 93.333z"/><glyph glyph-name="print" unicode="" d="M432 256c44.18 0 80-35.82 80-80V80c0-8.84-7.16-16-16-16h-80V-48c0-8.84-7.16-16-16-16H112c-8.84 0-16 7.16-16 16V64H16C7.16 64 0 71.16 0 80v96c0 44.18 35.82 80 80 80h16v160c0 17.67 13.64 32 30.48 32h180.26a32 32 0 0022.63-9.37l77.26-77.25c6-6.01 9.37-14.14 9.37-22.63V256h16zM320 402.75V352h50.75zM128.12 416l-.1-160H384v64h-64c-17.67 0-32 14.33-32 32v64H128.12zM384-32v96H128v-96h256zm96 128v80c0 26.47-21.53 48-48 48H80c-26.47 0-48-21.53-48-48V96h448zm-80 88c13.25 0 24-10.74 24-24 0-13.25-10.75-24-24-24s-24 10.75-24 24c0 13.26 10.75 24 24 24z"/><glyph glyph-name="camera" unicode="" d="M324.3 384h-131c-6.7 0-12.7-4.2-15-10.4L158.2 320H48c-8.8 0-16-7.2-16-16V16c0-8.8 7.2-16 16-16h416c8.8 0 16 7.2 16 16v288c0 8.8-7.2 16-16 16H353.9l-22.1 58.8c-1.2 3.1-4.2 5.2-7.5 5.2zm0 32c16.7 0 31.6-10.3 37.4-26l14.3-38h88c26.5 0 48-21.5 48-48V16c0-26.5-21.5-48-48-48H48C21.5-32 0-10.5 0 16v288c0 26.5 21.5 48 48 48h88l12.4 32.9c7 18.7 24.9 31.1 44.9 31.1h131zM256 40c-66.2 0-120 53.8-120 120s53.8 120 120 120 120-53.8 120-120S322.2 40 256 40zm0 208c-48.5 0-88-39.5-88-88s39.5-88 88-88 88 39.5 88 88-39.5 88-88 88z"/><glyph glyph-name="font" unicode="" horiz-adv-x="448" d="M424 0c4.416 0 8-3.584 8-8v-16c0-4.416-3.584-8-8-8H312c-4.416 0-8 3.584-8 8v16c0 4.416 3.584 8 8 8h41.53l-44.31 128H138.78L94.482 0h41.52c4.416 0 8-3.584 8-8v-16c0-4.416-3.584-8-8-8H24c-4.417 0-8 3.584-8 8v16c0 4.416 3.583 8 8 8h36.6l140.28 405.23c2.056 5.944 8.83 10.77 15.12 10.77h16.008c6.291 0 13.065-4.826 15.121-10.77L387.401 0h36.6zM149.86 160h148.279l-74.14 214.2z"/><glyph glyph-name="bold" unicode="" horiz-adv-x="384" d="M306 213.88c43.121-18.247 78.117-71.058 78.117-117.88 0-70.656-57.344-128-128-128H40c-4.416 0-8 3.584-8 8v16c0 4.416 3.584 8 8 8h24v384H40c-4.416 0-8 3.584-8 8v16c0 4.416 3.584 8 8 8h200c61.824 0 112-50.176 112-112 0-37.11-18.26-69.74-46-90.12zM96 384V224h144c44.16 0 80 35.84 80 80s-35.84 80-80 80H96zM256 0c52.992 0 96 43.008 96 96s-43.008 96-96 96H96V0h160z"/><glyph glyph-name="italic" unicode="" horiz-adv-x="320" d="M320 408v-16c0-4.416-3.584-8-8-8h-87.5l-96-384H216c4.416 0 8-3.584 8-8v-16c0-4.416-3.584-8-8-8H8c-4.416 0-8 3.584-8 8v16c0 4.416 3.584 8 8 8h87.5l96 384H104c-4.416 0-8 3.584-8 8v16c0 4.416 3.584 8 8 8h208c4.416 0 8-3.584 8-8z"/><glyph glyph-name="text-height" unicode="" horiz-adv-x="576" d="M560 80c15.64 0 20.64-18 11.32-27.32l-80-80c-2.587-2.587-7.656-4.688-11.315-4.688s-8.728 2.1-11.315 4.688l-80 80c-10.02 10-3 27.32 11.31 27.32h64v224h-64c-15.64 0-20.64 18-11.32 27.31l80 80c2.587 2.587 7.656 4.688 11.315 4.688s8.728-2.1 11.315-4.688l80-80c10.02-10 3-27.31-11.31-27.31h-64V80h64zM438.63 336h82.73L480 377.38zM480 6.64L521.38 48h-82.74zM304 416c8.832 0 16-7.168 16-16v-72c0-4.416-3.584-8-8-8h-16c-4.416 0-8 3.584-8 8v56H176V0h72c4.416 0 8-3.584 8-8v-16c0-4.416-3.584-8-8-8H72c-4.416 0-8 3.584-8 8v16c0 4.416 3.584 8 8 8h72v384H32v-56c0-4.416-3.584-8-8-8H8c-4.416 0-8 3.584-8 8v72c0 8.832 7.168 16 16 16h288z"/><glyph glyph-name="text-width" unicode="" horiz-adv-x="448" d="M362.31 155.31l80-79.98c2.588-2.586 4.688-7.656 4.688-11.315 0-3.658-2.1-8.727-4.688-11.314l-80-80c-2.54-2.595-7.546-4.7-11.177-4.7h-.003l-.13-.002c-8.832 0-16 7.168-16 16V48H111v-64c0-10.31-7.83-16-15.83-16h-.126c-3.662 0-8.748 2.088-11.353 4.66l-80 80C1.103 55.248-.998 60.318-.998 63.976c0 3.66 2.1 8.729 4.689 11.315l80 80c2.538 2.6 7.548 4.71 11.182 4.71H95c8.832 0 16-7.168 16-16V80h224v64c0 10.31 7.83 16 15.83 16h.113c3.672 0 8.764-2.1 11.367-4.69zM79 80v25.36L37.63 64 79 22.63V80zm288-57.36L408.37 64 367 105.37V22.64zM431 416c8.832 0 16-7.168 16-16v-72c0-4.416-3.584-8-8-8h-16c-4.416 0-8 3.584-8 8v56H239V192h40c4.416 0 8-3.584 8-8v-16c0-4.416-3.584-8-8-8H167c-4.416 0-8 3.584-8 8v16c0 4.416 3.584 8 8 8h40v192H31v-56c0-4.416-3.584-8-8-8H7c-4.416 0-8 3.584-8 8v72c0 8.832 7.168 16 16 16h416z"/><glyph glyph-name="align-left" unicode="" horiz-adv-x="448" d="M280 400c4.416 0 8-3.584 8-8v-16c0-4.416-3.584-8-8-8H8c-4.416 0-8 3.584-8 8v16c0 4.416 3.584 8 8 8h272zM440 16c4.416 0 8-3.584 8-8V-8c0-4.416-3.584-8-8-8H8c-4.416 0-8 3.584-8 8V8c0 4.416 3.584 8 8 8h432zM280 144c4.416 0 8-3.584 8-8v-16c0-4.416-3.584-8-8-8H8c-4.416 0-8 3.584-8 8v16c0 4.416 3.584 8 8 8h272zm160 128c4.416 0 8-3.584 8-8v-16c0-4.416-3.584-8-8-8H8c-4.416 0-8 3.584-8 8v16c0 4.416 3.584 8 8 8h432z"/><glyph glyph-name="align-center" unicode="" horiz-adv-x="448" d="M344 400c4.416 0 8-3.584 8-8v-16c0-4.416-3.584-8-8-8H104c-4.416 0-8 3.584-8 8v16c0 4.416 3.584 8 8 8h240zm96-384c4.416 0 8-3.584 8-8V-8c0-4.416-3.584-8-8-8H8c-4.416 0-8 3.584-8 8V8c0 4.416 3.584 8 8 8h432zm-96 128c4.416 0 8-3.584 8-8v-16c0-4.416-3.584-8-8-8H104c-4.416 0-8 3.584-8 8v16c0 4.416 3.584 8 8 8h240zm96 128c4.416 0 8-3.584 8-8v-16c0-4.416-3.584-8-8-8H8c-4.416 0-8 3.584-8 8v16c0 4.416 3.584 8 8 8h432z"/><glyph glyph-name="align-right" unicode="" horiz-adv-x="448" d="M440 400c4.416 0 8-3.584 8-8v-16c0-4.416-3.584-8-8-8H168c-4.416 0-8 3.584-8 8v16c0 4.416 3.584 8 8 8h272zm0-384c4.416 0 8-3.584 8-8V-8c0-4.416-3.584-8-8-8H8c-4.416 0-8 3.584-8 8V8c0 4.416 3.584 8 8 8h432zm0 128c4.416 0 8-3.584 8-8v-16c0-4.416-3.584-8-8-8H168c-4.416 0-8 3.584-8 8v16c0 4.416 3.584 8 8 8h272zm0 128c4.416 0 8-3.584 8-8v-16c0-4.416-3.584-8-8-8H8c-4.416 0-8 3.584-8 8v16c0 4.416 3.584 8 8 8h432z"/><glyph glyph-name="align-justify" unicode="" horiz-adv-x="448" d="M439 400c4.416 0 8-3.584 8-8v-16c0-4.416-3.584-8-8-8H7c-4.416 0-8 3.584-8 8v16c0 4.416 3.584 8 8 8h432zm0-384c4.416 0 8-3.584 8-8V-8c0-4.416-3.584-8-8-8H7c-4.416 0-8 3.584-8 8V8c0 4.416 3.584 8 8 8h432zm0 128c4.416 0 8-3.584 8-8v-16c0-4.416-3.584-8-8-8H7c-4.416 0-8 3.584-8 8v16c0 4.416 3.584 8 8 8h432zm0 128c4.416 0 8-3.584 8-8v-16c0-4.416-3.584-8-8-8H7c-4.416 0-8 3.584-8 8v16c0 4.416 3.584 8 8 8h432z"/><glyph glyph-name="list" unicode="" d="M88 392c8.832 0 16-7.168 16-16v-48c0-8.832-7.168-16-16-16H40c-8.832 0-16 7.168-16 16v48c0 8.832 7.168 16 16 16h48zm0-160c8.832 0 16-7.168 16-16v-48c0-8.832-7.168-16-16-16H40c-8.832 0-16 7.168-16 16v48c0 8.832 7.168 16 16 16h48zm0-160c8.832 0 16-7.168 16-16V8c0-8.832-7.168-16-16-16H40C31.168-8 24-.832 24 8v48c0 8.832 7.168 16 16 16h48zm416-24c4.416 0 8-3.584 8-8V24c0-4.416-3.584-8-8-8H168c-4.416 0-8 3.584-8 8v16c0 4.416 3.584 8 8 8h336zm0 320c4.416 0 8-3.584 8-8v-16c0-4.416-3.584-8-8-8H168c-4.416 0-8 3.584-8 8v16c0 4.416 3.584 8 8 8h336zm0-160c4.416 0 8-3.584 8-8v-16c0-4.416-3.584-8-8-8H168c-4.416 0-8 3.584-8 8v16c0 4.416 3.584 8 8 8h336z"/><glyph glyph-name="outdent" unicode="" horiz-adv-x="448" d="M100.69 84.71l-96 95.97c-2.585 2.587-4.683 7.653-4.683 11.31 0 3.656 2.098 8.724 4.683 11.31l96 96c2.54 2.594 7.549 4.699 11.18 4.7l.13.001c8.832 0 16-7.168 16-16V96c-.005-8.827-7.173-15.99-16-15.99h-.14c-3.629 0-8.633 2.106-11.17 4.7zM96 249.36L38.63 192 96 134.64v114.72zM440 400c4.416 0 8-3.584 8-8v-16c0-4.416-3.584-8-8-8H8c-4.416 0-8 3.584-8 8v16c0 4.416 3.584 8 8 8h432zm0-384c4.416 0 8-3.584 8-8V-8c0-4.416-3.584-8-8-8H8c-4.416 0-8 3.584-8 8V8c0 4.416 3.584 8 8 8h432zm0 128c4.416 0 8-3.584 8-8v-16c0-4.416-3.584-8-8-8H200c-4.416 0-8 3.584-8 8v16c0 4.416 3.584 8 8 8h240zm0 128c4.416 0 8-3.584 8-8v-16c0-4.416-3.584-8-8-8H200c-4.416 0-8 3.584-8 8v16c0 4.416 3.584 8 8 8h240z"/><glyph glyph-name="indent" unicode="" horiz-adv-x="448" d="M27.31 299.3l96-95.98c2.585-2.586 4.682-7.653 4.682-11.31 0-3.656-2.097-8.724-4.682-11.31l-96-96c-2.53-2.594-7.527-4.7-11.152-4.7H16C7.168 80 0 87.166 0 96v192.001c0 8.832 7.168 16 16 16h.14c3.629-.002 8.632-2.107 11.17-4.701zM32 134.64L89.37 192 32 249.36V134.64zM440 400c4.416 0 8-3.584 8-8v-16c0-4.416-3.584-8-8-8H8c-4.416 0-8 3.584-8 8v16c0 4.416 3.584 8 8 8h432zm0-384c4.416 0 8-3.584 8-8V-8c0-4.416-3.584-8-8-8H8c-4.416 0-8 3.584-8 8V8c0 4.416 3.584 8 8 8h432zm0 128c4.416 0 8-3.584 8-8v-16c0-4.416-3.584-8-8-8H200c-4.416 0-8 3.584-8 8v16c0 4.416 3.584 8 8 8h240zm0 128c4.416 0 8-3.584 8-8v-16c0-4.416-3.584-8-8-8H200c-4.416 0-8 3.584-8 8v16c0 4.416 3.584 8 8 8h240z"/><glyph glyph-name="video" unicode="" horiz-adv-x="576" d="M543.9 352c16.6 0 32.1-13 32-31.5v-257c0-18.5-15.5-31.5-32.1-31.5-6.1 0-12.5 1.7-18.2 5.7L416 107.6V47.8C416 21.4 392.798 0 364.2 0H51.8C23.2 0 0 21.4 0 47.8v288.4C0 362.6 23.2 384 51.8 384h312.4c28.599 0 51.8-21.4 51.8-47.8v-59.8l109.7 69.9c5.7 3.9 12 5.7 18.2 5.7zM384 47.8v288.4c0 8.6-9.1 15.8-19.8 15.8H51.8c-10.7 0-19.8-7.2-19.8-15.8V47.8C32 39.2 41.1 32 51.8 32h312.4c10.7 0 19.8 7.2 19.8 15.8zm160 15.7V320l-128-81.5v-92.9l126.8-80.8z"/><glyph glyph-name="image" unicode="" d="M464 384c26.51 0 48-21.49 48-48V48c0-26.51-21.49-48-48-48H48C21.49 0 0 21.49 0 48v288c0 26.51 21.49 48 48 48h416zm16-336v288c0 8.822-7.178 16-16 16H48c-8.822 0-16-7.178-16-16V48c0-8.822 7.178-16 16-16h416c8.822 0 16 7.178 16 16zM112 216c-30.928 0-56 25.072-56 56s25.072 56 56 56 56-25.072 56-56-25.072-56-56-56zm0 80c-13.234 0-24-10.766-24-24s10.766-24 24-24 24 10.766 24 24-10.766 24-24 24zm207.029-23.029c9.373 9.372 24.568 9.372 33.941 0l88-88a24.004 24.004 0 007.03-16.97V76c0-6.628-5.373-12-12-12H76c-6.627 0-12 5.372-12 12v28c0 5.487 3.15 13.09 7.03 16.969l88 88c9.372 9.373 24.567 9.373 33.94 0L224 177.942zM416 96v68.686l-80 80-112-112-48 48-80-80V96h320z"/><glyph glyph-name="pencil" unicode="" d="M493.255 391.764c24.993-24.992 24.993-65.516.001-90.51L140.839-51.163 26.655-63.849C11.371-65.55-1.547-52.631.151-37.345L12.838 76.839l352.417 352.416c24.995 24.994 65.517 24.993 90.51 0zm-95.196-140.45l-82.744 82.744L91.255 110H126V62h48V27.254zM126.147-20.598L145.999-.745V34H98v48H63.254L43.402 62.147 36.846 3.152l30.306-30.305zm344.48 344.48c12.507 12.508 12.506 32.749 0 45.255l-37.49 37.49c-12.507 12.507-32.75 12.505-45.255 0l-49.94-49.941 82.744-82.744z"/><glyph glyph-name="map-marker" unicode="" horiz-adv-x="384" d="M192 448c106.039 0 192-85.96 192-192 0-77.413-26.97-99.031-172.267-309.67-9.536-13.774-29.932-13.773-39.466 0C26.97 156.969 0 178.587 0 256c0 106.039 85.96 192 192 192zm0-473.93C331.308 175.53 352 191.51 352 256c0 42.739-16.643 82.917-46.863 113.137-30.22 30.221-70.399 46.864-113.137 46.864s-82.917-16.643-113.137-46.864C48.642 338.917 31.999 298.74 31.999 256c0-64.494 20.706-80.488 160-281.93z"/><glyph glyph-name="adjust" unicode="" d="M256 408c-118.663 0-216-96.055-216-216C40 73.337 136.055-24 256-24c118.663 0 216 96.055 216 216 0 118.663-96.055 216-216 216zm0 32c136.967 0 248-111.033 248-248S392.967-56 256-56 8 55.033 8 192s111.033 248 248 248zm-32-124.01c-53.855-13.8-96-63-96-123.99 0-60.99 42.145-110.19 96-123.99v247.98zM256 352V32c-88.366 0-160 71.634-160 160s71.634 160 160 160z"/><glyph glyph-name="tint" unicode="" horiz-adv-x="352" d="M205.22 425.91C252.21 267.43 352 225.84 352 114.09 352 15.65 273.28-64 176-64S0 15.65 0 114.09c0 111.19 100.01 154.061 146.78 311.82 4.45 14.89 16.84 22.09 29.19 22.09 12.64 0 25.24-7.53 29.25-22.09zM176-32c79.4 0 144 65.54 144 146.09 0 48.61-22.94 81.39-54.68 126.771-29.24 41.77-65.47 93.56-89.3 171.08-23.84-77.28-60-129.101-89.18-170.91C55 195.411 32 162.451 32 114.091c0-80.55 64.6-146.09 144-146.09zm0 64c8.84 0 16-7.16 16-16s-7.16-16-16-16C114.25 0 64 50.25 64 112c0 8.84 7.16 16 16 16s16-7.16 16-16c0-44.11 35.88-80 80-80z"/><glyph glyph-name="edit" unicode="" horiz-adv-x="576" d="M417.8 132.5l20 20c3.8 3.8 10.2 1.1 10.2-4.2V-16c0-26.5-21.5-48-48-48H48C21.5-64 0-42.5 0-16v352c0 26.5 21.5 48 48 48h292.3c5.3 0 8-6.5 4.2-10.2l-20-20c-1.1-1.1-2.7-1.8-4.2-1.8H48c-8.8 0-16-7.2-16-16V-16c0-8.8 7.2-16 16-16h352c8.8 0 16 7.2 16 16v144.3c0 1.6.6 3.1 1.8 4.2zm145.9 191.2L251.2 11.2 151.3.1c-13.4-1.5-24.7 9.8-23.2 23.2l11.1 99.9 312.5 312.5c16.4 16.4 43 16.4 59.4 0l52.6-52.6c16.4-16.4 16.4-43 0-59.4zm-93.6-48.4L403.4 342 169.8 108.5l-8.3-75.1 75.1 8.3zm71 85.2l-52.6 52.6c-3.8 3.8-10.2 4-14.1 0L426 364.7l66.7-66.7 48.4 48.4c3.9 3.8 3.9 10.2 0 14.1z"/><glyph glyph-name="arrows" unicode="" d="M337.782 13.296l-73.297-73.782c-4.686-4.686-12.284-4.686-16.972 0l-73.296 73.782c-4.685 4.686-4.685 12.284 0 16.97l7.07 7.07c4.686 4.686 12.285 4.686 16.972 0l40.74-41.223h1V176H60.114v-1l41.223-40.741c4.687-4.686 4.687-12.284 0-16.97l-7.071-7.071c-4.686-4.686-12.283-4.686-16.97 0l-73.78 73.297c-4.686 4.686-4.686 12.284 0 16.972l73.781 73.297c4.687 4.685 12.285 4.685 16.971 0l7.071-7.072c4.687-4.685 4.687-12.284 0-16.97L60.113 209v-1H240v179.887h-1l-40.741-41.223c-4.686-4.687-12.285-4.687-16.971 0l-7.07 7.071c-4.686 4.686-4.687 12.283 0 16.97l73.296 73.782c4.687 4.685 12.285 4.685 16.972 0l73.297-73.782c4.686-4.687 4.686-12.284 0-16.971l-7.071-7.071c-4.686-4.687-12.284-4.687-16.971 0L273 387.887h-1V208h179.887v1l-41.224 40.742c-4.686 4.685-4.686 12.284 0 16.97l7.071 7.07c4.686 4.686 12.284 4.686 16.97 0l73.782-73.296c4.687-4.687 4.686-12.285 0-16.972l-73.782-73.297c-4.686-4.686-12.284-4.686-16.97 0l-7.07 7.07c-4.687 4.686-4.687 12.285 0 16.971L451.886 175v1H272V-3.887h1l40.741 41.224c4.686 4.686 12.284 4.686 16.97 0l7.071-7.071c4.686-4.685 4.686-12.283 0-16.97z"/><glyph glyph-name="step-backward" unicode="" horiz-adv-x="448" d="M76-31c-6.6 0-12 5.4-12 12v424c0 6.6 5.4 12 12 12h8c6.6 0 12-5.4 12-12V213.6c1.1 1.2 2.2 2.3 3.5 3.4l232 192.6c20.6 17.2 52.5 2.801 52.5-24.6V1.1c0-27.399-31.9-41.799-52.5-24.599l-232 191.4c-1.3 1-2.4 2.2-3.5 3.4V-19c0-6.6-5.4-12-12-12h-8zm40.5 223.4L351.7 1.2l.2-.1.1-.1v384l-.1-.1-.1-.1z"/><glyph glyph-name="fast-backward" unicode="" d="M12 1C5.4 1 0 6.4 0 13v360c0 6.6 5.4 12 12 12h8c6.6 0 12-5.4 12-12V214.1c.9 1 1.9 2 3 2.9l200.5 160.5c20.6 17.2 52.5 2.8 52.5-24.6V234.1l171.5 143.5c20.6 17.2 52.5 2.8 52.5-24.6V33c0-27.4-31.9-41.8-52.5-24.6L288 150.8V33c0-27.4-31.9-41.8-52.5-24.6L35 167.799c-1.1.9-2.1 1.9-3 2.9V13c0-6.6-5.4-12-12-12h-8zm280.5 191.4l.1-.1.1-.1L480 33v320L292.9 192.6l-.2-.1zm-231.5.4v-.8L255.8 33.2l.1-.1.1-.1v320l-.1-.1-.1-.1z"/><glyph glyph-name="backward" unicode="" d="M267.5 166.9c-15.3 12.7-15.3 36.3 0 49.1l192 160.6c20.6 17.2 52.5 2.8 52.5-24.6V32.1c0-27.4-31.9-41.8-52.5-24.6zm20.5 24.5L480 32v320zM11.5 166.9c-15.3 12.7-15.3 36.3 0 49.1l192 160.6c20.6 17.2 52.5 2.8 52.5-24.6V32.1c0-27.4-31.9-41.8-52.5-24.6zM32 191.4L224 32v320z"/><glyph glyph-name="play" unicode="" horiz-adv-x="448" d="M424.4 233.3c31.5-18.5 31.4-64.1 0-82.6l-352-208C40.7-76.1 0-53.5 0-16v416.1c0 41.801 43.8 58.2 72.4 41.301zm-16.2-55.1c10.4 6.2 10.4 21.4-.1 27.6l-352 208.1c-7.7 4.6-24.1 2.5-24.1-13.8V-16c0-12.6 13.6-19.9 24.2-13.8z"/><glyph glyph-name="pause" unicode="" horiz-adv-x="448" d="M48-31C21.5-31 0-9.5 0 17v352c0 26.5 21.5 48 48 48h96c26.5 0 48-21.5 48-48V17c0-26.5-21.5-48-48-48H48zM32 369V17c0-8.8 7.2-16 16-16h96c8.8 0 16 7.2 16 16v352c0 8.8-7.2 16-16 16H48c-8.8 0-16-7.2-16-16zM304-31c-26.5 0-48 21.5-48 48v352c0 26.5 21.5 48 48 48h96c26.5 0 48-21.5 48-48V17c0-26.5-21.5-48-48-48h-96zm-16 400V17c0-8.8 7.2-16 16-16h96c8.8 0 16 7.2 16 16v352c0 8.8-7.2 16-16 16h-96c-8.8 0-16-7.2-16-16z"/><glyph glyph-name="stop" unicode="" horiz-adv-x="448" d="M400 416c26.5 0 48-21.5 48-48V16c0-26.5-21.5-48-48-48H48C21.5-32 0-10.5 0 16v352c0 26.5 21.5 48 48 48h352zm16-400v352c0 8.8-7.2 16-16 16H48c-8.8 0-16-7.2-16-16V16c0-8.8 7.2-16 16-16h352c8.8 0 16 7.2 16 16z"/><glyph glyph-name="forward" unicode="" d="M244.5 217.1c15.3-12.7 15.3-36.3 0-49.2L52.5 7.4C31.9-9.8 0 4.6 0 32v320c0 27.4 31.9 41.7 52.5 24.6zM224 192.6L32 352V32zm276.5 24.5c15.3-12.7 15.3-36.3 0-49.2L308.5 7.4C287.9-9.8 256 4.6 256 32v320c0 27.4 31.9 41.7 52.5 24.5zM480 192.6L288 352V32z"/><glyph glyph-name="fast-forward" unicode="" d="M500 385c6.6 0 12-5.4 12-12V13c0-6.6-5.4-12-12-12h-8c-6.6 0-12 5.4-12 12v158.9c-.9-1-1.9-2-3-2.9L276.5 8.4C255.9-8.8 224 5.599 224 33v118.8L52.5 8.4C31.9-8.8 0 5.6 0 33v320c0 27.4 31.9 41.7 52.5 24.6L224 235.2V353c0 27.4 31.9 41.7 52.5 24.6L477 218.201c1.1-.9 2.1-1.9 3-2.9V373c0 6.6 5.4 12 12 12h8zM219.5 193.6l-.1.1-.1.1L32 353V33l187.1 160.4.2.1zm231.5-.5v.9L256.2 352.8l-.1.101-.1.1V33h.1l.1.1z"/><glyph glyph-name="step-forward" unicode="" horiz-adv-x="448" d="M372 417c6.6 0 12-5.4 12-12V-19c0-6.6-5.4-12-12-12h-8c-6.6 0-12 5.4-12 12v191.4c-1.1-1.2-2.2-2.3-3.5-3.4l-232-192.6C95.9-40.8 64-26.401 64 1v384c0 27.4 31.9 41.7 52.5 24.5l232-191.4c1.3-1 2.4-2.2 3.5-3.4V405c0 6.6 5.4 12 12 12h8zm-40.5-223.4L96.3 384.8l-.2.1-.1.1V1l.1.1.1.1z"/><glyph glyph-name="eject" unicode="" horiz-adv-x="448" d="M435.322 208.435C463.519 177.675 441.59 128 399.939 128H48.052c-41.728 0-63.527 49.733-35.383 80.435l175.946 192.008c19.016 20.744 51.753 20.742 70.767 0zM399.939 160c13.87 0 21.164 16.589 11.794 26.811L235.79 378.825c-6.337 6.914-17.262 6.892-23.585-.004L36.262 186.817C26.884 176.585 34.187 160 48.052 160H399.94zM448 48V16c0-26.51-21.49-48-48-48H48C21.49-32 0-10.51 0 16v32c0 26.51 21.49 48 48 48h352c26.51 0 48-21.49 48-48zm-48 16H48c-8.822 0-16-7.178-16-16V16c0-8.823 7.178-16 16-16h352c8.822 0 16 7.177 16 16v32c0 8.822-7.178 16-16 16z"/><glyph glyph-name="chevron-left" unicode="" horiz-adv-x="256" d="M238.475-27.535c-4.686-4.687-12.283-4.687-16.97-.001l-211.05 211.05c-4.687 4.687-4.687 12.285 0 16.972l211.05 211.05c4.687 4.685 12.285 4.685 16.97 0l7.071-7.07c4.687-4.687 4.687-12.286 0-16.971L50.053 192 245.546-3.493c4.687-4.687 4.687-12.286 0-16.971z"/><glyph glyph-name="chevron-right" unicode="" horiz-adv-x="256" d="M17.525 411.535c4.686 4.687 12.284 4.687 16.97 0l211.051-211.049c4.687-4.687 4.687-12.285 0-16.972L34.496-27.536c-4.687-4.685-12.285-4.685-16.97 0l-7.072 7.07c-4.686 4.687-4.686 12.286 0 16.971L205.947 192 10.454 387.493c-4.686 4.687-4.686 12.286 0 16.971z"/><glyph glyph-name="plus-circle" unicode="" d="M384 198v-12c0-6.6-5.4-12-12-12h-98V76c0-6.6-5.4-12-12-12h-12c-6.6 0-12 5.4-12 12v98h-98c-6.6 0-12 5.4-12 12v12c0 6.6 5.4 12 12 12h98v98c0 6.6 5.4 12 12 12h12c6.6 0 12-5.4 12-12v-98h98c6.6 0 12-5.4 12-12zm120-6C504 55 393-56 256-56S8 55 8 192s111 248 248 248 248-111 248-248zm-32 0c0 119.9-97.3 216-216 216-119.9 0-216-97.3-216-216C40 72.1 137.3-24 256-24c119.9 0 216 97.3 216 216z"/><glyph glyph-name="minus-circle" unicode="" d="M140 174c-6.6 0-12 5.4-12 12v12c0 6.6 5.4 12 12 12h232c6.6 0 12-5.4 12-12v-12c0-6.6-5.4-12-12-12H140zm364 18C504 55 393-56 256-56S8 55 8 192s111 248 248 248 248-111 248-248zm-32 0c0 119.9-97.3 216-216 216-119.9 0-216-97.3-216-216C40 72.1 137.3-24 256-24c119.9 0 216 97.3 216 216z"/><glyph glyph-name="times-circle" unicode="" d="M256 440c137 0 248-111 248-248S393-56 256-56 8 55 8 192s111 248 248 248zm0-464c119.9 0 216 97.3 216 216 0 119.9-97.3 216-216 216-119.9 0-216-97.3-216-216C40 72.1 137.3-24 256-24zm94.8 285.3L281.5 192l69.3-69.3c4.7-4.7 4.7-12.3 0-17l-8.5-8.5c-4.7-4.7-12.3-4.7-17 0L256 166.5l-69.3-69.3c-4.7-4.7-12.3-4.7-17 0l-8.5 8.5c-4.7 4.7-4.7 12.3 0 17l69.3 69.3-69.3 69.3c-4.7 4.7-4.7 12.3 0 17l8.5 8.5c4.7 4.7 12.3 4.7 17 0l69.3-69.3 69.3 69.3c4.7 4.7 12.3 4.7 17 0l8.5-8.5c4.6-4.7 4.6-12.3 0-17z"/><glyph glyph-name="check-circle" unicode="" d="M256 440c136.967 0 248-111.033 248-248S392.967-56 256-56 8 55.033 8 192s111.033 248 248 248zm0-464c119.945 0 216 97.337 216 216 0 119.945-97.336 216-216 216-119.945 0-216-97.337-216-216C40 72.055 137.336-24 256-24zm141.63 274.961L217.151 71.929c-4.705-4.667-12.304-4.637-16.97.068l-85.879 86.573c-4.667 4.705-4.636 12.302.069 16.97l8.52 8.45c4.704 4.668 12.303 4.637 16.97-.068l68.976-69.533 163.44 162.13c4.706 4.667 12.303 4.638 16.97-.067l8.451-8.52c4.668-4.706 4.637-12.304-.068-16.97z"/><glyph glyph-name="question-circle" unicode="" d="M256 108c15.464 0 28-12.536 28-28s-12.536-28-28-28-28 12.536-28 28 12.536 28 28 28zm7.67 24h-16c-6.627 0-12 5.373-12 12v.38c0 70.344 77.44 63.62 77.44 107.409 0 20.015-17.761 40.21-57.44 40.21-29.144 0-44.265-9.649-59.21-28.692-3.91-4.98-11.055-5.994-16.249-2.376l-13.134 9.15c-5.625 3.92-6.86 11.771-2.645 17.178 21.226 27.227 46.41 44.74 91.238 44.74 52.32 0 97.44-29.75 97.44-80.21 0-67.414-77.44-63.849-77.44-107.408V144c0-6.627-5.373-12-12-12zM256 408c-119.398 0-216-96.797-216-216C40 72.562 136.756-24 256-24c119.39 0 216 96.709 216 216 0 119.925-97.379 216-216 216zm0 32c136.957 0 248-111.083 248-248C504 55.003 392.957-56 256-56S8 55.003 8 192c0 136.917 111.043 248 248 248z"/><glyph glyph-name="info-circle" unicode="" d="M256 408c-119.398 0-216-96.797-216-216C40 72.562 136.756-24 256-24c119.39 0 216 96.709 216 216 0 119.925-97.379 216-216 216zm0 32c136.957 0 248-111.083 248-248C504 55.003 392.957-56 256-56S8 55.003 8 192c0 136.917 111.043 248 248 248zM220 96h12v120h-12c-6.627 0-12 5.373-12 12v8c0 6.627 5.373 12 12 12h48c6.627 0 12-5.373 12-12V96h12c6.627 0 12-5.373 12-12v-8c0-6.627-5.373-12-12-12h-72c-6.627 0-12 5.373-12 12v8c0 6.627 5.373 12 12 12zm36 240c17.673 0 32-14.327 32-32s-14.327-32-32-32-32 14.327-32 32 14.327 32 32 32z"/><glyph glyph-name="crosshairs" unicode="" d="M506 208c3.312 0 6-2.688 6-6v-20c0-3.312-2.688-6-6-6h-34.59C463.607 69.462 378.537-15.608 272-23.409v-34.59c0-3.312-2.688-6-6-6h-20c-3.311 0-6 2.688-6 6v34.59C133.462-15.609 48.392 69.462 40.591 176H6.001c-3.312 0-6 2.688-6 6v20c0 3.312 2.688 6 6 6h34.59c7.801 106.538 92.871 191.608 199.41 199.409v34.59c0 3.312 2.688 6 6 6h20c3.31 0 6-2.688 6-6v-34.59c106.537-7.8 191.607-92.871 199.408-199.409H506zM272 8.695C361.031 16.316 431.711 87.282 439.305 176H374c-3.311 0-6 2.689-6 6v20c0 3.312 2.689 6 6 6h65.305c-7.62 89.032-78.587 159.711-167.305 167.305v-65.304c0-3.312-2.688-6-6-6h-20c-3.312 0-6 2.688-6 6v65.304C150.969 367.685 80.289 296.718 72.695 208H138c3.311 0 6-2.688 6-6v-20c0-3.311-2.689-6-6-6H72.695C80.315 86.97 151.282 16.29 240 8.695V74c0 3.312 2.688 6 6 6h20c3.312 0 6-2.688 6-6V8.695zM280 192c0-13.255-10.745-24-24-24s-24 10.745-24 24 10.745 24 24 24 24-10.745 24-24z"/><glyph glyph-name="ban" unicode="" d="M256 440c136.967 0 248-111.033 248-248S392.967-56 256-56 8 55.033 8 192s111.033 248 248 248zM103.265 39.265c80.606-80.606 208.94-84.165 293.744-10.9L92.365 333.008c-73.249-84.786-69.723-213.12 10.9-293.743zm316.37 11.727c73.249 84.786 69.723 213.122-10.9 293.743-80.606 80.605-208.938 84.163-293.742 10.9z"/><glyph glyph-name="arrow-left" unicode="" horiz-adv-x="448" d="M231.536-27.535c-4.687-4.687-12.284-4.687-16.97-.001L3.514 183.514c-4.685 4.687-4.685 12.285 0 16.972l211.052 211.05c4.686 4.685 12.284 4.685 16.97 0l7.071-7.07c4.686-4.687 4.686-12.286 0-16.971L60.113 209H436c6.627 0 12-5.374 12-12v-10c0-6.627-5.373-12-12-12H60.113L238.607-3.493c4.686-4.687 4.686-12.286 0-16.971z"/><glyph glyph-name="arrow-right" unicode="" horiz-adv-x="448" d="M216.464 411.535c4.687 4.687 12.284 4.687 16.97 0l211.052-211.049c4.685-4.687 4.685-12.285 0-16.972L233.434-27.536c-4.686-4.685-12.284-4.685-16.97 0l-7.071 7.07c-4.686 4.687-4.686 12.286 0 16.971L387.887 175H12c-6.627 0-12 5.373-12 12v10c0 6.627 5.373 12 12 12h375.887L209.393 387.493c-4.686 4.687-4.686 12.286 0 16.971z"/><glyph glyph-name="arrow-up" unicode="" horiz-adv-x="448" d="M4.465 184.464c-4.687 4.687-4.687 12.284 0 16.97l211.049 211.052c4.687 4.685 12.285 4.685 16.972 0l211.05-211.051c4.685-4.686 4.685-12.284 0-16.97l-7.07-7.071c-4.687-4.686-12.286-4.686-16.971 0L241 355.887V-20c0-6.627-5.374-12-12-12h-10c-6.627 0-12 5.373-12 12v375.887L28.507 177.393c-4.687-4.686-12.286-4.686-16.971 0z"/><glyph glyph-name="arrow-down" unicode="" horiz-adv-x="448" d="M443.5 199.5c4.7-4.7 4.7-12.2-.1-17l-211-211.1c-4.7-4.7-12.3-4.7-17 0L4.4 182.5c-4.7 4.7-4.7 12.3 0 17l7.1 7.1c4.7 4.7 12.3 4.7 17 0L207 28.1V404c0 6.6 5.4 12 12 12h10c6.6 0 12-5.4 12-12V28.1l178.4 178.5c4.7 4.7 12.3 4.7 17 0z"/><glyph glyph-name="share" unicode="" horiz-adv-x="576" d="M564.907 251.65c14.791-15.47 14.791-39.83.001-55.3l-175.998-184C364.19-13.496 320 3.76 320 40v87.84c-154.425-1.812-219.063-16.727-181.19-151.092 8.342-29.517-25.447-52.232-49.68-34.51C55.84-33.421 0 21.83 0 116.809 0 287.898 154.548 317.845 320 319.83v88.154c0 36.27 44.216 53.466 68.91 27.65zm-23.127-33.18c1.23 1.28 2.228 3.756 2.228 5.53s-.999 4.251-2.228 5.53l-176 184c-4.93 5.16-13.78 1.732-13.78-5.53V288c-157.114 0-320-11.18-320-171.19C32 42.41 72-5.36 108.02-31.7 56.685 150.293 180.602 160 352 160V40c0-7.26 8.846-10.69 13.78-5.53z"/><glyph glyph-name="expand" unicode="" horiz-adv-x="448" d="M0 268v124c0 13.3 10.7 24 24 24h124c6.6 0 12-5.4 12-12v-8c0-6.6-5.4-12-12-12H32V268c0-6.6-5.4-12-12-12h-8c-6.6 0-12 5.4-12 12zm300 148h124c13.3 0 24-10.7 24-24V268c0-6.6-5.4-12-12-12h-8c-6.6 0-12 5.4-12 12v116H300c-6.6 0-12 5.4-12 12v8c0 6.6 5.4 12 12 12zm148-300V-8c0-13.3-10.7-24-24-24H300c-6.6 0-12 5.4-12 12v8c0 6.6 5.4 12 12 12h116v116c0 6.6 5.4 12 12 12h8c6.6 0 12-5.4 12-12zM148-32H24C10.7-32 0-21.3 0-8v124c0 6.6 5.4 12 12 12h8c6.6 0 12-5.4 12-12V0h116c6.6 0 12-5.4 12-12v-8c0-6.6-5.4-12-12-12z"/><glyph glyph-name="compress" unicode="" horiz-adv-x="448" d="M436 256H312c-13.3 0-24 10.7-24 24v124c0 6.6 5.4 12 12 12h8c6.6 0 12-5.4 12-12V288h116c6.6 0 12-5.4 12-12v-8c0-6.6-5.4-12-12-12zm-276 24c0-13.3-10.7-24-24-24H12c-6.6 0-12 5.4-12 12v8c0 6.6 5.4 12 12 12h116v116c0 6.6 5.4 12 12 12h8c6.6 0 12-5.4 12-12V280zm0-300c0-6.6-5.4-12-12-12h-8c-6.6 0-12 5.4-12 12V96H12c-6.6 0-12 5.4-12 12v8c0 6.6 5.4 12 12 12h124c13.3 0 24-10.7 24-24V-20zm160 0c0-6.6-5.4-12-12-12h-8c-6.6 0-12 5.4-12 12v124c0 13.3 10.7 24 24 24h124c6.6 0 12-5.4 12-12v-8c0-6.6-5.4-12-12-12H320V-20z"/><glyph glyph-name="plus" unicode="" horiz-adv-x="384" d="M376 216c4.42 0 8-3.58 8-8v-32c0-4.42-3.58-8-8-8H216V8c0-4.42-3.58-8-8-8h-32c-4.42 0-8 3.58-8 8v160H8c-4.42 0-8 3.58-8 8v32c0 4.42 3.58 8 8 8h160v160c0 4.42 3.58 8 8 8h32c4.42 0 8-3.58 8-8V216h160z"/><glyph glyph-name="minus" unicode="" horiz-adv-x="384" d="M376 216c4.42 0 8-3.58 8-8v-32c0-4.42-3.58-8-8-8H8c-4.42 0-8 3.58-8 8v32c0 4.42 3.58 8 8 8h368z"/><glyph glyph-name="asterisk" unicode="" d="M475.31 83.856c5.74-3.313 7.706-10.652 4.393-16.392l-4-6.928c-3.314-5.74-10.653-7.706-16.393-4.393L272 164.287V-52c0-6.626-5.373-12-12-12h-8c-6.627 0-12 5.374-12 12v216.287L52.69 56.143c-5.74-3.313-13.078-1.347-16.393 4.393l-4 6.928c-3.313 5.74-1.347 13.078 4.393 16.392L224 192 36.69 300.144c-5.74 3.314-7.706 10.653-4.393 16.393l4 6.928c3.314 5.739 10.653 7.706 16.393 4.392L240 219.713V436c0 6.627 5.373 12 12 12h8c6.627 0 12-5.373 12-12V219.713l187.31 108.144c5.74 3.314 13.078 1.348 16.393-4.392l4-6.928c3.313-5.74 1.347-13.078-4.393-16.393L288 192z"/><glyph glyph-name="exclamation-circle" unicode="" d="M256 408c-119.398 0-216-96.797-216-216C40 72.562 136.756-24 256-24c119.39 0 216 96.709 216 216 0 119.925-97.379 216-216 216zm0 32c136.957 0 248-111.083 248-248C504 55.003 392.957-56 256-56S8 55.003 8 192c0 136.917 111.043 248 248 248zm-11.49-120h22.98c6.822 0 12.273-5.682 11.989-12.5l-7-168c-.268-6.428-5.556-11.5-11.99-11.5h-8.979c-6.433 0-11.722 5.073-11.99 11.5l-7 168c-.282 6.818 5.167 12.5 11.99 12.5zM256 108c15.464 0 28-12.536 28-28s-12.536-28-28-28-28 12.536-28 28 12.536 28 28 28z"/><glyph glyph-name="gift" unicode="" d="M464 304c26.5 0 48-21.5 48-48v-96c0-8.8-7.2-16-16-16h-16V0c0-26.5-21.5-48-48-48H80C53.5-48 32-26.5 32 0v144H16c-8.8 0-16 7.2-16 16v96c0 26.5 21.5 48 48 48h39.3C77.8 317.4 72 333.9 72 352c0 44.1 33.4 80 74.5 80 42.3 0 66.8-25.4 109.5-95.8 42.7 70.4 67.2 95.8 109.5 95.8 41.1 0 74.5-35.9 74.5-80 0-18.1-5.8-34.6-15.3-48H464zm-187.8 3.6L274 304h91.5c23.4 0 42.5 21.5 42.5 48s-19.1 48-42.5 48c-23.3 0-39.8-9.1-89.3-92.4zM146.5 400c-23.4 0-42.5-21.5-42.6-48 0-26.5 19.1-48 42.5-48h91.5l-2.1 3.6c-49.5 83.3-65.9 92.4-89.3 92.4zM192-16v160H64V0c0-8.8 7.2-16 16-16h112zm0 192v96H48c-8.8 0-16-7.2-16-16v-80h160zm96-192v288h-64V-16h64zM448 0v144H320V-16h112c8.8 0 16 7.2 16 16zm32 176v80c0 8.8-7.2 16-16 16H320v-96h160z"/><glyph glyph-name="leaf" unicode="" horiz-adv-x="576" d="M546.2 438.3c19-42.4 29.8-94.4 29.8-144.6 0-172.5-110.5-313.2-267.6-324.601-6.7-.7-13.5-1.1-20.4-1.1-73.3 0-136.9 41.1-169.3 101.4C55 11.8 31.5-52.1 31.098-53.3c-3-8.7-12.5-12.6-20.4-9.8C2.4-60.2-2-51 .9-42.7c.5 1.3 28.4 77.7 104.7 143-6.2 18.8-9.6 38.8-9.6 59.7 0 106 86 192 192 192h80c63.4 0 118.9 33.6 149.9 87.5 3.3 5.7 8.7 8.5 14 8.5 5.7 0 11.4-3.2 14.3-9.7zM305 .9C443.9 11 544 134.1 544 293.7c0 34.8-5.8 71.2-16.3 103.5C489 348.4 431.3 320 368 320h-80c-88.2 0-160-71.8-160-160 0-13.3 2.1-26 5.2-38.4C189 161 265.2 192 368 192c8.8 0 16-7.2 16-16s-7.2-16-16-16c-99.4 0-171.7-31-223.5-69.4C170.4 37.2 224.7 0 288 0c5.4 0 11.1.3 17 .9z"/><glyph glyph-name="fire" unicode="" horiz-adv-x="384" d="M216 423.99c0-103.141 168-125.7 168-295.99 0-105.87-86.13-192-192-192S0 22.13 0 128c0 62.72 30.75 121.62 82.27 157.55 15.88 11.08 37.73-.29 37.73-19.68V160c0-22.06 17.94-40 40-40s40 17.94 40 40c0 49.27-123.45 129.75-28.15 277.03C184.84 457.1 216 447.79 216 423.99zM192-32c88.22 0 160 71.78 160 160 0 144.7-144 160-165.41 280C120 288 232 225.11 232 160c0-39.7-32.3-72-72-72s-72 32.3-72 72v96c-35.32-30.25-56-81.06-56-128 0-88.22 71.78-160 160-160z"/><glyph glyph-name="eye" unicode="" horiz-adv-x="576" d="M288 160c-35.328 0-64 28.672-64 64 0 .97.29 1.85.29 2.85 4.336-1.575 11.6-2.852 16.212-2.852 26.22 0 47.5 21.28 47.5 47.5 0 4.612-1.277 11.876-2.852 16.212.97.05 1.85.29 2.85.29 35.328 0 64-28.672 64-64s-28.672-64-64-64zm284.52 46.6c1.92-3.799 3.48-10.338 3.48-14.595s-1.56-10.796-3.48-14.594C518.32 71.64 410.93 0 288 0S57.71 71.59 3.48 177.4C1.56 181.199 0 187.739 0 191.995s1.56 10.796 3.48 14.595C57.68 312.361 165.07 384 288 384s230.29-71.59 284.52-177.4zM288 352c-70.58-.077-127.923-57.42-128-128 0-70.656 57.344-128 128-128s128 57.344 128 128-57.344 128-128 128zm0-320c107.36 0 205.47 61.31 256 160-24.148 47.406-82.29 105.347-129.78 129.33C435.09 294.31 448 260.83 448 224c0-88.32-71.68-160-160-160s-160 71.68-160 160c0 36.83 12.91 70.31 33.78 97.33C114.29 297.347 56.15 239.406 32 192 82.54 93.31 180.64 32 288 32z"/><glyph glyph-name="eye-slash" unicode="" horiz-adv-x="640" d="M637-37.25c1.656-1.326 3.001-4.124 3.001-6.245 0-1.548-.784-3.786-1.751-4.995l-10-12.51c-1.326-1.66-4.126-3.006-6.249-3.006-1.55 0-3.791.787-5.001 1.756L3 421.25c-1.653 1.326-2.994 4.122-2.994 6.24 0 1.55.786 3.79 1.754 5l10 12.51c1.326 1.656 4.124 3.001 6.246 3.001 1.548 0 3.785-.784 4.994-1.751zM320 352c-32.44 0-61.76-12.52-84.35-32.43l-45.77 36C224.03 371.264 282.25 384 319.835 384H320c122.94 0 230.3-71.59 284.53-177.4 1.92-3.799 3.48-10.338 3.48-14.595s-1.56-10.796-3.48-14.594c-18.06-35.25-42.46-66.23-70.93-92.51l-25.32 19.94c23.212 20.551 53.573 59.598 67.77 87.16-24.165 47.409-82.329 105.349-129.83 129.33C467.09 294.31 480 260.83 480 224c0-29.14-8.35-56.09-21.95-79.57l-25.45 20c9.5 17.88 15.4 37.95 15.4 59.57-.077 70.579-57.421 127.922-128 128zm60.86-146.83l-63.95 50.35c1.706 4.369 3.09 11.72 3.09 16.409 0 4.498-1.277 11.568-2.85 15.781.96.05 1.85.29 2.85.29.236.003.62.006.856.006 34.86 0 63.15-28.291 63.15-63.15 0-5.572-1.41-14.391-3.146-19.686zm-217.62 49.16l29.48-23.21c-.13-2.4-.72-4.68-.72-7.12.083-70.58 57.43-127.923 128.01-128 12.83 0 24.98 2.47 36.68 6l29.58-23.29c-17.566-8.12-47.529-14.711-66.881-14.711-87.984 0-159.39 71.407-159.39 159.391v.61c.063 8.46 1.515 22.048 3.24 30.33zM320 32c35.15 0 69.06 7.16 100.87 19.43l29.25-23C415.968 12.736 357.746 0 320.161 0H320C197.07 0 89.71 71.59 35.52 177.4c-1.92 3.799-3.479 10.338-3.479 14.595s1.559 10.796 3.479 14.594c18.06 35.25 42.45 66.22 70.93 92.5l25.86-20.37C105.09 254.72 81.43 226 64 192 114.53 93.31 212.64 32 320 32z"/><glyph glyph-name="exclamation-triangle" unicode="" horiz-adv-x="576" d="M270.2 288h35.5c3.4 0 6.1-2.8 6-6.2l-7.5-196c-.1-3.2-2.8-5.8-6-5.8h-20.5c-3.2 0-5.9 2.5-6 5.8l-7.5 196a6 6 0 006 6.2zM288 60c15.5 0 28-12.5 28-28S303.5 4 288 4s-28 12.5-28 28 12.5 28 28 28zM569.5 8c18.5-32-4.7-72-41.5-72H48.1c-37 0-60 40.1-41.6 72l239.9 416c18.5 32 64.8 32 83.2 0zM528-32c12.3 0 20 13.4 13.8 24l-240 416c-6.1 10.7-21.6 10.6-27.7 0L34.1-8C28-18.7 35.7-32 48-32h480z"/><glyph glyph-name="plane" unicode="" horiz-adv-x="576" d="M480 256c35.35 0 96-28.65 96-64s-60.65-64-96-64H365.71L260.6-55.94A16.01 16.01 0 00246.71-64h-88.36c-10.63 0-18.3 10.18-15.38 20.4L192 128h-64L84.8 70.402c-3.02-4.03-7.76-6.4-12.8-6.4H16.01C5.6 64-2.04 73.78.49 83.88L32 192 .49 300.12C-2.04 310.22 5.6 320 16.01 320H72c5.03 0 9.78-2.37 12.8-6.4L128 256h64l-49.03 171.61c-2.92 10.22 4.75 20.39 15.38 20.39h88.361c5.126 0 11.353-3.612 13.9-8.06L365.71 256H480zm0-96c26.24 0 62.61 21.75 64 32.09-1.39 10.16-37.76 31.91-64 31.91H347.15L237.44 416h-57.87l54.85-192H112l-48 64H37.33l28-96-27.98-96H64l48 64h122.43L179.57-32h57.86l109.71 192H480z"/><glyph glyph-name="calendar-alt" unicode="" horiz-adv-x="448" d="M400 384c26.5 0 48-21.5 48-48V-16c0-26.5-21.5-48-48-48H48C21.5-64 0-42.5 0-16v352c0 26.5 21.5 48 48 48h48v52c0 6.6 5.4 12 12 12h8c6.6 0 12-5.4 12-12v-52h192v52c0 6.6 5.4 12 12 12h8c6.6 0 12-5.4 12-12v-52h48zM48 352c-8.8 0-16-7.2-16-16v-48h384v48c0 8.8-7.2 16-16 16H48zM400-32c8.8 0 16 7.2 16 16v272H32V-16c0-8.8 7.2-16 16-16h352zM148 128h-40c-6.6 0-12 5.4-12 12v40c0 6.6 5.4 12 12 12h40c6.6 0 12-5.4 12-12v-40c0-6.6-5.4-12-12-12zm96 0h-40c-6.6 0-12 5.4-12 12v40c0 6.6 5.4 12 12 12h40c6.6 0 12-5.4 12-12v-40c0-6.6-5.4-12-12-12zm96 0h-40c-6.6 0-12 5.4-12 12v40c0 6.6 5.4 12 12 12h40c6.6 0 12-5.4 12-12v-40c0-6.6-5.4-12-12-12zm-96-96h-40c-6.6 0-12 5.4-12 12v40c0 6.6 5.4 12 12 12h40c6.6 0 12-5.4 12-12V44c0-6.6-5.4-12-12-12zm-96 0h-40c-6.6 0-12 5.4-12 12v40c0 6.6 5.4 12 12 12h40c6.6 0 12-5.4 12-12V44c0-6.6-5.4-12-12-12zm192 0h-40c-6.6 0-12 5.4-12 12v40c0 6.6 5.4 12 12 12h40c6.6 0 12-5.4 12-12V44c0-6.6-5.4-12-12-12z"/><glyph glyph-name="random" unicode="" d="M0 320v8c0 6.6 5.4 12 12 12h105.8c3.3 0 6.5-1.4 8.8-3.9l89.7-97-21.8-23.6L109 308H12c-6.6 0-12 5.4-12 12zM502.6 41.4l-64-64C418.5-42.7 384-28.4 384 0v44h-25.7c-3.3 0-6.5 1.4-8.8 3.9l-89.7 97 21.8 23.6L367 76h17v52c0 28.5 34.5 42.7 54.6 22.6l64-64c12.5-12.5 12.5-32.7 0-45.2zm-19.8 25.4l-64 64c-2.5 2.5-6.8.7-6.8-2.8V0c0-3.6 4.3-5.4 6.8-2.8l64 64c1.6 1.5 1.6 4.1 0 5.6zm19.8 230.6l-64-64c-20.1-20.1-54.6-5.8-54.6 22.6v52h-17L126.6 47.9c-2.3-2.5-5.5-3.9-8.8-3.9H12C5.402 44 0 49.4 0 56v8c0 6.599 5.401 12 12 12h97l240.4 260.1c2.3 2.5 5.5 3.9 8.8 3.9H384v44c0 28.5 34.5 42.7 54.6 22.6l64-64c12.5-12.5 12.5-32.7 0-45.2zm-19.8 25.4l-64 64c-2.5 2.5-6.8.7-6.8-2.8V256c0-3.6 4.3-5.4 6.8-2.8l64 64c1.6 1.5 1.6 4.1 0 5.6z"/><glyph glyph-name="comment" unicode="" d="M256 384c-123.5 0-224-79-224-176 0-37.6 15.3-73.7 44.2-104.3l13.7-14.6-7.1-18.7C71.8 41.2 54 15.9 42 .8c44.1 4.3 79.6 23.3 102.6 39.6l13 9.2 15.2-4.8C199.7 36.3 227.7 32 256 32c123.5 0 224 79 224 176S379.5 384 256 384zm0 32c141.4 0 256-93.1 256-208S397.4 0 256 0c-32.8 0-64 5.2-93 14.3C133.9-6.3 85.4-32 23.9-32c-9.6 0-18.2 5.7-22 14.5-3.8 8.8-2 19 4.6 26C7 8.9 38 42.3 52.9 81.7 19.9 116.8 0 160.4 0 208c0 114.9 114.6 208 256 208z"/><glyph glyph-name="magnet" unicode="" d="M372 416h104c19.9 0 36-16.1 36-36V190.7C512 40 377.5-56 256.8-56 136.2-56 0 40 0 190.7c.7 15.3 1 39 1.1 65.3H0v32h1.1C1 321.2.7 355.1.4 379.6c-.2 20.1 16 36.4 36 36.4H140c19.9 0 36-16.1 36-36V208c0-64 40.1-96 80.1-96 39.9 0 79.9 32 79.9 96v172c0 19.9 16.1 36 36 36zM36.5 380c.2-24.6.5-58.6.6-92H140v92H36.5zM476 189.9c-.7 15.9-1 39.8-1.1 66H372v-48c0-49.2-18.9-79.7-34.7-96.6-10.7-11.5-23.4-20.4-37.7-26.5-13.8-5.9-28.5-8.9-43.5-8.9s-29.7 3-43.5 8.9c-14.3 6.1-27 15-37.8 26.5-15.9 16.9-34.8 47.4-34.8 96.6v48H36.9c-.1-26.4-.4-50.2-1.1-66.1.2-30.3 6.7-59.1 19.6-85.6 12.1-24.8 29.3-47.1 51.3-66.3 20.8-18.1 45.6-33 71.8-43 25.7-9.8 52.7-15 78.2-15s52.4 5.2 77.9 15c26 10 50.6 24.8 71.2 42.9 21.8 19.1 38.9 41.4 50.8 66.3 12.8 26.5 19.3 55.4 19.4 85.8zM372 288h102.9c0 33.4.3 67.4.6 92H372v-92z"/><glyph glyph-name="chevron-up" unicode="" horiz-adv-x="448" d="M4.465 81.525c-4.687 4.686-4.687 12.284 0 16.97l211.049 211.051c4.687 4.687 12.285 4.687 16.972 0l211.05-211.05c4.685-4.687 4.685-12.285 0-16.97l-7.07-7.072c-4.687-4.686-12.286-4.686-16.971 0L224 269.947 28.507 74.454c-4.687-4.686-12.286-4.686-16.971 0z"/><glyph glyph-name="chevron-down" unicode="" horiz-adv-x="448" d="M443.5 285.4c4.7-4.7 4.7-12.3-.1-17l-211-211.101c-4.7-4.7-12.3-4.7-17 0L4.4 268.4c-4.7 4.7-4.7 12.3 0 17l7.1 7.1c4.7 4.7 12.3 4.7 17 0L224 97l195.4 195.5c4.7 4.7 12.3 4.7 17 0z"/><glyph glyph-name="retweet" unicode="" horiz-adv-x="640" d="M634.828 84.201l-98.343-98.343c-4.686-4.686-12.284-4.686-16.972 0l-98.342 98.343c-4.686 4.686-4.686 12.284 0 16.97l5.656 5.657c4.686 4.686 12.284 4.686 16.97 0L512 38.628V320H260.022c-2.743 0-6.544 1.575-8.484 3.515l-8 8c-7.56 7.56-2.206 20.485 8.486 20.485H520c13.255 0 24-10.745 24-24V38.628l68.2 68.201c4.686 4.686 12.285 4.686 16.972 0l5.656-5.656c4.685-4.687 4.685-12.285 0-16.972zM388.461 60.485l8-8c7.56-7.56 2.206-20.485-8.485-20.485H120c-13.255 0-24 10.745-24 24v289.372l-68.202-68.201c-4.685-4.686-12.284-4.686-16.97 0l-5.656 5.657c-4.686 4.686-4.686 12.285 0 16.97l98.341 98.345c4.688 4.686 12.286 4.686 16.972 0l98.343-98.343c4.686-4.687 4.685-12.285 0-16.971l-5.657-5.657c-4.686-4.686-12.285-4.686-16.97 0L128 345.372V64h251.976c2.744 0 6.545-1.575 8.485-3.515z"/><glyph glyph-name="shopping-cart" unicode="" horiz-adv-x="576" d="M551.991 384c15.224 0 26.6-13.991 23.497-28.895l-43.331-208c-2.32-11.13-12.128-19.105-23.496-19.105H177.28l12-64h296.048c11.432 0 20.694-7.89 23.285-18.132C520.566 34.24 528.001 17.993 528.001 0c0-35.346-28.654-64-64-64s-64 28.654-64 64v.07c0 9.45 3.845 23.754 8.583 31.93H263.417C268.155 23.824 272 9.52 272 .07V0c0-35.346-28.654-64-64-64s-64 28.654-64 64c0 16.58 6.305 31.686 16.647 43.054L90.72 416H12c-6.627 0-12 5.373-12 12v8c0 6.627 5.373 12 12 12h85.362c11.549 0 21.46-8.226 23.59-19.577L129.28 384h422.711zM240 0c0 17.645-14.355 32-32 32s-32-14.355-32-32 14.355-32 32-32 32 14.355 32 32zm224-32c17.645 0 32 14.355 32 32s-14.355 32-32 32-32-14.355-32-32 14.355-32 32-32zm38.156 192l40 192H135.28l36-192h330.876z"/><glyph glyph-name="folder" unicode="" d="M194.74 352H48c-8.84 0-16-7.16-16-16V48c0-8.84 7.16-16 16-16h416c8.84 0 16 7.16 16 16v224c0 8.84-7.16 16-16 16H272a32 32 0 00-22.63 9.37zM48 384h146.74a32 32 0 0022.63-9.37L272 320h192c26.51 0 48-21.49 48-48V48c0-26.51-21.49-48-48-48H48C21.49 0 0 21.49 0 48v288c0 26.51 21.49 48 48 48z"/><glyph glyph-name="folder-open" unicode="" horiz-adv-x="576" d="M527.95 224c37.335 0 60.29-40.812 41.16-72.696L501.655 38.84C487.192 14.733 461.125 0 433.056 0H48C21.49 0 0 21.49 0 48v288c0 26.51 21.49 48 48 48h160l64-64h160c26.51 0 48-21.49 48-48v-48h47.95zM48 352c-8.837 0-16-7.163-16-16V67.53l70.578 117.63C117.042 209.266 143.11 224 171.177 224H448v48c0 8.837-7.163 16-16 16H258.745l-64 64H48zm493.695-184.232c6.398 10.664-1.283 24.232-13.72 24.232H167.998c-15.002 0-33.441-10.44-41.16-23.303L44.823 32h388.234c15.001 0 33.44 10.44 41.158 23.303z"/><glyph glyph-name="arrows-v" unicode="" horiz-adv-x="192" d="M181.415 48.041l7.071-7.07c4.686-4.686 4.686-12.285 0-16.97l-84-84.485c-4.687-4.687-12.285-4.687-16.971 0L3.515 24c-4.686 4.686-4.686 12.284 0 16.97l7.07 7.071c4.687 4.686 12.285 4.686 16.97 0L79-3.886v391.772L27.556 335.96c-4.687-4.686-12.285-4.686-16.971 0l-7.07 7.07c-4.686 4.686-4.686 12.285 0 16.97l83.999 84.486c4.687 4.686 12.285 4.686 16.971 0l84-84.485c4.686-4.686 4.686-12.285 0-16.97l-7.07-7.071c-4.688-4.686-12.285-4.686-16.97 0L113 387.886V-3.887l51.444 51.928c4.687 4.686 12.284 4.686 16.971 0z"/><glyph glyph-name="arrows-h" unicode="" d="M399.959 277.415l7.07 7.071c4.686 4.686 12.285 4.686 16.97 0l84.485-84c4.687-4.687 4.687-12.285 0-16.971l-84.485-84c-4.686-4.686-12.284-4.686-16.97 0l-7.071 7.07c-4.686 4.687-4.686 12.285 0 16.97L451.886 175H60.114l51.927-51.445c4.686-4.687 4.686-12.286 0-16.971l-7.07-7.07c-4.686-4.686-12.285-4.686-16.97 0l-84.486 84c-4.686 4.687-4.686 12.285 0 16.971l84.485 84c4.686 4.686 12.285 4.686 16.97 0l7.071-7.07c4.686-4.688 4.686-12.285 0-16.97L60.114 209h391.773l-51.928 51.444c-4.686 4.687-4.686 12.284 0 16.971z"/><glyph glyph-name="chart-bar" unicode="" d="M424 96c-4.4 0-8 3.6-8 8v240c0 4.4 3.6 8 8 8h16c4.4 0 8-3.6 8-8V104c0-4.4-3.6-8-8-8h-16zm-96 0c-4.4 0-8 3.6-8 8v144c0 4.4 3.6 8 8 8h16c4.4 0 8-3.6 8-8V104c0-4.4-3.6-8-8-8h-16zm-192 0c-4.4 0-8 3.6-8 8v80c0 4.4 3.6 8 8 8h16c4.4 0 8-3.6 8-8v-80c0-4.4-3.6-8-8-8h-16zm96 0c-4.4 0-8 3.6-8 8v208c0 4.4 3.6 8 8 8h16c4.4 0 8-3.6 8-8V104c0-4.4-3.6-8-8-8h-16zm272-64c4.42 0 8-3.58 8-8V8c0-4.42-3.58-8-8-8H16C7.16 0 0 7.16 0 16v360c0 4.42 3.58 8 8 8h16c4.42 0 8-3.58 8-8V32h472z"/><glyph glyph-name="camera-retro" unicode="" d="M32 390v20c0 3.3 2.7 6 6 6h116c3.3 0 6-2.7 6-6v-20c0-3.3-2.7-6-6-6H38c-3.3 0-6 2.7-6 6zm344-230c0-66.2-53.8-120-120-120S136 93.8 136 160s53.8 120 120 120 120-53.8 120-120zm-32 0c0 48.5-39.5 88-88 88s-88-39.5-88-88 39.5-88 88-88 88 39.5 88 88zm-120 0c0-8.8-7.2-16-16-16s-16 7.2-16 16c0 35.3 28.7 64 64 64 8.8 0 16-7.2 16-16s-7.2-16-16-16c-17.6 0-32-14.4-32-32zm288 208V16c0-26.5-21.5-48-48-48H48C21.5-32 0-10.5 0 16v288c0 26.5 21.5 48 48 48h136l33.6 44.8c9.1 12.1 23.3 19.2 38.4 19.2h208c26.5 0 48-21.5 48-48zm-288-16h240c5.6 0 11-1 16-2.7V368c0 8.8-7.2 16-16 16H256c-5 0-9.8-2.4-12.8-6.4zm256-48c0 8.8-7.2 16-16 16H48c-8.8 0-16-7.2-16-16V16c0-8.8 7.2-16 16-16h416c8.8 0 16 7.2 16 16v288z"/><glyph glyph-name="key" unicode="" d="M336 416c-79.53 0-144-64.47-144-144 0-18.968 3.675-37.076 10.339-53.661L31.999 47.999v-80h96v64h64v64h48l42.34 42.34c16.585-6.664 34.693-10.34 53.66-10.34 79.53 0 144 64.472 144 144s-64.47 144-144 144zm0 32c97.231 0 176-78.816 176-176 0-97.231-78.816-176-176-176-15.307 0-30.352 1.945-44.946 5.798l-30.769-30.769a24.006 24.006 0 00-16.97-7.03H224V24c0-13.254-10.745-24-24-24h-40v-40c0-13.254-10.745-24-24-24H24C10.745-64 0-53.254 0-40v91.315c0 5.487 3.15 13.09 7.03 16.97l158.768 158.77C161.946 241.648 160 256.693 160 272c0 97.232 78.817 176 176 176zm48-108c-11.028 0-20-8.972-20-20s8.972-20 20-20 20 8.972 20 20-8.972 20-20 20zm0 28c26.51 0 48-21.49 48-48s-21.49-48-48-48-48 21.49-48 48 21.49 48 48 48z"/><glyph glyph-name="cogs" unicode="" horiz-adv-x="640" d="M538.6 251.6l-2.5 3.9c-4.1-.3-8.1-.3-12.2 0l-2.5-4c-5.8-9.2-17.1-13.4-27.5-10.1-13.8 4.3-23 8.8-34.3 18.1-9 7.4-11.2 20.3-5.4 30.4l2.5 4.3c-2.3 3.4-4.3 6.9-6.1 10.6h-9.1c-11.6 0-21.4 8.2-23.6 19.6-2.6 13.7-2.7 24.2.1 38.5 2.1 11.3 12.1 19.5 23.6 19.5h9c1.8 3.7 3.8 7.2 6.1 10.6l-2.6 4.5c-5.8 10-3.6 22.7 5.2 30.3 10.6 9.1 19.7 14.3 33.5 19 10.8 3.7 22.7-.7 28.5-10.6l2.6-4.4c4.1.3 8.1.3 12.2 0l2.6 4.4c5.8 9.9 17.7 14.3 28.6 10.5 13.3-4.5 22.3-9.6 33.5-19.1 8.8-7.5 10.9-20.2 5.1-30.2l-2.6-4.4c2.3-3.4 4.3-6.9 6.1-10.6h5.1c11.6 0 21.4-8.2 23.6-19.6 2.6-13.7 2.7-24.2-.1-38.5-2.1-11.3-12.1-19.5-23.6-19.5h-5c-1.8-3.7-3.8-7.2-6.1-10.6l2.5-4.3c5.9-10.2 3.5-23.1-5.5-30.5-10.7-8.8-19.9-13.4-34-17.9-10.5-3.3-21.9.8-27.7 10.1zm12.2 34.5l10.6-18.3c6.7 2.8 12.9 6.4 18.7 10.8l-10.6 18.3 6.4 7.5c4.8 5.7 8.6 12.1 11 19.1l3.3 9.3h21.1c.9 7.1.9 14.4 0 21.5h-21.1l-3.3 9.3c-2.5 7-6.2 13.4-11 19.1l-6.4 7.5 10.5 18.4c-5.7 4.4-12 8-18.7 10.8l-10.6-18.3-9.7 1.8c-7.3 1.4-14.8 1.4-22.1 0l-9.7-1.8-10.6 18.3c-6.6-2.7-12.9-6.4-18.6-10.8l10.6-18.3-6.4-7.5c-4.8-5.7-8.6-12.1-11-19.1l-3.3-9.3h-21.1c-.9-7.1-.9-14.4 0-21.5h21.1l3.3-9.3c2.5-7 6.2-13.4 11-19.1l6.4-7.5-10.6-18.4c5.7-4.4 12-8 18.7-10.8l10.6 18.3 9.7-1.8c7.3-1.4 14.8-1.4 22.1 0zM145.3-6.4v31.6c-12.9 5.5-25.1 12.6-36.4 21.1L81.4 30.4c-9.8-5.6-22.1-3.7-29.7 4.6-24.2 26.3-38.5 49.5-50.6 88.1-3.4 10.7 1.1 22.3 10.8 28L39.2 167c-1.7 14-1.7 28.1 0 42.1l-27.3 15.8c-9.7 5.6-14.2 17.3-10.8 28 12.1 38.4 26.2 61.6 50.6 88.1 7.6 8.3 20 10.2 29.7 4.6l27.4-15.9c11.3 8.5 23.5 15.5 36.4 21.1v31.6c0 11.3 7.8 21 18.8 23.4 34.7 7.8 62 8.7 101.7 0 11-2.4 18.9-12.2 18.9-23.4v-31.6c12.9-5.5 25.1-12.6 36.4-21l27.4 15.8c9.8 5.6 22.2 3.7 29.8-4.6 26.9-29.6 41.5-55.9 52.1-88.5 3.4-10.5-.8-21.9-10.2-27.7l-25-15.8c1.7-14 1.7-28.1 0-42.1l28.1-17.5c8.6-5.4 13-15.6 10.8-25.5-6.9-31.3-33-64.6-55.9-89.2-7.6-8.2-19.9-10-29.6-4.4L321 46.2c-11.3-8.5-23.5-15.5-36.4-21.1V-6.5c0-11.2-7.8-21-18.8-23.4-37.5-8.3-64.9-8.2-101.9 0-10.8 2.5-18.6 12.3-18.6 23.5zm32 6.2c24.8-5 50.5-5 75.3 0v47.7l10.7 3.8c16.8 5.9 32.3 14.9 45.9 26.5l8.6 7.4 41.4-23.9c16.8 19.1 34 41.3 42.1 65.2l-41.4 23.9 2.1 11.1c3.2 17.6 3.2 35.5 0 53.1l-2.1 11.1 41.4 23.9c-8.1 23.9-25.3 46.2-42.1 65.2l-41.4-23.9-8.6 7.4c-13.6 11.7-29 20.6-45.9 26.5l-10.7 3.8v47.6c-24.8 5-50.5 5-75.3 0v-47.7l-10.7-3.8c-16.8-5.9-32.3-14.9-45.9-26.5l-8.6-7.4-41.4 23.9c-14-15.916-30.89-45.126-37.7-65.2l41.4-23.9-2.1-11.1c-3.2-17.6-3.2-35.5 0-53.1l2.1-11.1L33 126.4c8.1-23.9 20.9-46.2 37.7-65.2l41.4 23.9 8.6-7.4c13.6-11.7 29-20.6 45.9-26.5l10.7-3.8V-.2zm38.4 105.3c-45.7 0-82.9 37.2-82.9 82.9s37.2 82.9 82.9 82.9 82.9-37.2 82.9-82.9-37.2-82.9-82.9-82.9zm0 133.8c-28 0-50.9-22.8-50.9-50.9s22.8-50.9 50.9-50.9c28 0 50.9 22.8 50.9 50.9s-22.8 50.9-50.9 50.9zM538.6-52.8l-2.5 3.9c-4.1-.3-8.1-.3-12.2 0l-2.5-4c-5.8-9.2-17.1-13.4-27.5-10.1-13.8 4.3-23 8.8-34.3 18.1-9 7.4-11.2 20.3-5.4 30.4l2.5 4.3c-2.3 3.4-4.3 6.9-6.1 10.6h-9.1c-11.6 0-21.4 8.2-23.6 19.6-2.6 13.7-2.7 24.2.1 38.5 2.1 11.3 12.1 19.5 23.6 19.5h9c1.8 3.7 3.8 7.2 6.1 10.6l-2.6 4.5c-5.8 10-3.6 22.7 5.2 30.3 10.6 9.1 19.7 14.3 33.5 19 10.8 3.7 22.7-.7 28.5-10.6l2.6-4.4c4.1.3 8.1.3 12.2 0l2.6 4.4c5.8 9.9 17.7 14.3 28.6 10.5 13.3-4.5 22.3-9.6 33.5-19.1 8.8-7.5 10.9-20.2 5.1-30.2l-2.6-4.4c2.3-3.4 4.3-6.9 6.1-10.6h5.1c11.6 0 21.4-8.2 23.6-19.6 2.6-13.7 2.7-24.2-.1-38.5C635.9 8.6 625.9.4 614.4.4h-5c-1.8-3.7-3.8-7.2-6.1-10.6l2.5-4.3c5.9-10.2 3.5-23.1-5.5-30.5-10.7-8.8-19.9-13.4-34-17.9-10.5-3.2-21.9.9-27.7 10.1zm12.2 34.6l10.6-18.3c6.7 2.8 12.9 6.4 18.7 10.8L569.5-7.4l6.4 7.5c4.8 5.7 8.6 12.1 11 19.1l3.3 9.3h21.1c.9 7.1.9 14.4 0 21.5h-21.1l-3.3 9.3c-2.5 7-6.2 13.4-11 19.1l-6.4 7.5 10.6 18.3c-5.7 4.4-12 8-18.7 10.8l-10.6-18.3-9.7 1.8c-7.3 1.4-14.8 1.4-22.1 0l-9.7-1.8-10.6 18.3c-6.7-2.8-12.9-6.4-18.7-10.8l10.6-18.3-6.4-7.5c-4.8-5.7-8.6-12.1-11-19.1l-3.3-9.3h-21.1c-.9-7.1-.9-14.4 0-21.5h21.1l3.3-9.3c2.5-7 6.2-13.4 11-19.1l6.4-7.5L480-25.7c5.7-4.4 12-8 18.7-10.8l10.6 18.3L519-20c7.3-1.4 14.8-1.4 22.1 0zM560 40c0-17.7-14.3-32-32-32s-32 14.3-32 32 14.3 32 32 32 32-14.3 32-32zm0 304.3c0-17.6-14.3-32-32-32s-32 14.3-32 32 14.3 32 32 32 32-14.3 32-32z"/><glyph glyph-name="comments" unicode="" horiz-adv-x="576" d="M569.9 6.9c6.3-6.7 8-16.5 4.4-25-3.7-8.5-12-14-21.2-14-53.6 0-96.7 20.3-125.2 38.8-19-4.4-39-6.8-59.8-6.8-86.3 0-160.3 40.5-191.8 98-9.6 1.1-18.9 2.7-28 4.8-28.5-18.6-71.7-38.8-125.2-38.8-9.2 0-17.6 5.5-21.2 14-3.7 8.5-1.9 18.3 4.4 25 .4.4 22.4 24.2 37.7 54.9C16.5 185 0 219 0 256c0 88.4 93.1 160 208 160 86.3 0 160.4-40.5 191.8-98.1C499.5 306.1 576 240 576 160c0-37.1-16.5-71.1-44-98.2 15.3-30.7 37.4-54.5 37.9-54.9zM155.4 134c17.2-4 34.9-6 52.6-6 97 0 176 57.4 176 128s-79 128-176 128S32 326.6 32 256c0-34.2 18.7-59.9 34.5-75.4L83 164.3l-10.4-20.8c-9.3-18.8-20.7-35.1-29.5-46.4 37.2 4.3 67.6 19.4 87.7 32.5l11.4 7.4zM445.2 33.6c20.1-13 50.5-28.2 87.6-32.4-8.7 11.2-20.1 27.5-29.5 46.4L493 68.3l16.5 16.3c15.8 15.5 34.5 41.2 34.5 75.4 0 59.3-55.9 109.2-131.3 123.7 2-9 3.3-18.2 3.3-27.7 0-86.4-89.1-156.6-200.4-159.8C246 57.8 302.9 31.9 368 31.9c17.7 0 35.4 2 52.6 6l13.2 3.1z"/><glyph glyph-name="star-half" unicode="" horiz-adv-x="576" d="M288 44.6V8.4L157.3-60.2c-23.4-12.3-50.9 7.6-46.4 33.7l25 145.5L30.2 222c-19 18.5-8.5 50.8 17.7 54.6L194 297.8l65.3 132.4c5.901 11.9 17.3 17.8 28.7 17.8v-32l-72.799-147.5-162.7-23.6 117.8-114.801-27.8-162z"/><glyph glyph-name="sign-out" unicode="" d="M48 384h132c6.6 0 12-5.4 12-12v-8c0-6.6-5.4-12-12-12H48c-8.8 0-16-7.2-16-16V48c0-8.8 7.2-16 16-16h132c6.6 0 12-5.4 12-12v-8c0-6.6-5.4-12-12-12H48C21.5 0 0 21.5 0 48v288c0 26.5 21.5 48 48 48zm279-19.5c4.7 4.7 12.3 4.7 17 0l164.6-164c4.7-4.7 4.7-12.3 0-17l-164.5-164c-4.7-4.7-12.3-4.7-17 0l-7.1 7.1c-4.7 4.7-4.7 12.3 0 17L451.9 175H172c-6.6 0-12 5.4-12 12v10c0 6.6 5.4 12 12 12h279.9l-132 131.4a12.01 12.01 0 000 17z"/><glyph glyph-name="thumbtack" unicode="" horiz-adv-x="384" d="M300.8 244.1c48.3-27.6 83.2-74.5 83.1-131.3 0-8.8-7.2-16-16-16h-160V-24c0-.6 0-1.3-.2-1.9l-8-32c-2-8.1-13.5-8-15.5 0l-8 32c-.1.6-.2 1.2-.2 1.9V96.8H16c-8.8 0-16 7.2-16 16 0 56.8 34.9 103.7 83.2 131.3L93.3 320H56c-13.2 0-24 10.8-24 24v80c0 13.2 10.8 24 24 24h272c13.2 0 24-10.8 24-24v-80c0-13.2-10.8-24-24-24h-37.3zM33.3 128.8v-.1h317.5c-6.8 42.7-39.5 76.3-79.5 94.5L256 352h64v64H64v-64h64l-15.2-128.7c-39.9-18.1-72.7-51.6-79.5-94.5z"/><glyph glyph-name="external-link" unicode="" d="M440 192c4.416 0 8-3.584 8-8V-16c0-26.496-21.504-48-48-48H48C21.504-64 0-42.496 0-16v352c0 26.496 21.504 48 48 48h200c4.416 0 8-3.584 8-8v-16c0-4.416-3.584-8-8-8H48c-8.832 0-16-7.168-16-16V-16c0-8.832 7.168-16 16-16h352c8.832 0 16 7.168 16 16v200c0 4.416 3.584 8 8 8h16zm60 256c6.624 0 12-5.376 12-12l-.34-136.04c0-6.624-5.376-12-12-12h-10c-6.624 0-12 5.376-12 12l.34 90-.71.7L154.17 67.48c-1.941-1.949-5.749-3.53-8.5-3.53-2.75 0-6.559 1.581-8.5 3.53l-5.66 5.66c-1.948 1.94-3.53 5.75-3.53 8.5s1.582 6.558 3.53 8.5L454.7 413.29l-.7.71-90-.34c-6.624 0-12 5.375-12 12v10c0 6.624 5.376 12 12 12z"/><glyph glyph-name="sign-in" unicode="" d="M184 364.5l164.5-164c4.7-4.7 4.7-12.3 0-17L184 19.5c-4.7-4.7-12.3-4.7-17 0l-7.1 7.1c-4.7 4.7-4.7 12.3 0 17l132 131.4H12c-6.6 0-12 5.4-12 12v10c0 6.6 5.4 12 12 12h279.9L160 340.4a12.01 12.01 0 000 17l7.1 7.1c4.6 4.7 12.2 4.7 16.9 0zM512 48c0-26.5-21.5-48-48-48H332c-6.6 0-12 5.4-12 12v8c0 6.6 5.4 12 12 12h132c8.8 0 16 7.2 16 16v288c0 8.8-7.2 16-16 16H332c-6.6 0-12 5.4-12 12v8c0 6.6 5.4 12 12 12h132c26.5 0 48-21.5 48-48V48z"/><glyph glyph-name="trophy" unicode="" horiz-adv-x="576" d="M448 384h116c6.6 0 12-5.4 12-12v-61.6c0-62-68-134.4-160.7-148.1C385.9 101.6 341.7 72 304 65.4V-32h86c14.4 0 26-11.7 26-26.1 0-3.3-2.7-5.9-6-5.9H166c-3.3 0-6 2.6-6 5.9 0 14.4 11.6 26.1 26 26.1h86v97.4c-37.6 6.6-81.9 36.2-111.3 96.9C68.1 176 0 248.3 0 310.4V372c0 6.6 5.4 12 12 12h116v52c0 6.6 5.4 12 12 12h296c6.6 0 12-5.4 12-12v-52zM32 310.4c0-40.4 45.9-94.9 114.5-112.601-11.5 35.3-18.5 78.4-18.5 130.2v24H32v-41.6zM288 96c72 0 128 104 128 232v88H160v-88c0-128 56-232 128-232zm256 214.4V352h-96v-24c0-51.8-7-94.9-18.5-130.2C498 215.5 544 270 544 310.4z"/><glyph glyph-name="upload" unicode="" d="M452 16c0-11-9-20-20-20s-20 9-20 20 9 20 20 20 20-9 20-20zm-84 20c11 0 20-9 20-20s-9-20-20-20-20 9-20 20 9 20 20 20zm144 48V-20c0-24.3-19.7-44-44-44H44C19.7-64 0-44.3 0-20V84c0 24.3 19.7 44 44 44h124v99.3h-52.7c-35.6 0-53.4 43.1-28.3 68.3l140.7 140.7c15.6 15.6 40.9 15.6 56.6 0L425 295.6c25.2-25.2 7.3-68.3-28.3-68.3H344V128h124c24.3 0 44-19.7 44-44zM200 259.3V72c0-4.4 3.6-8 8-8h96c4.4 0 8 3.6 8 8v187.3h84.7c7.1 0 10.7 8.6 5.7 13.7L261.7 413.7c-3.1 3.1-8.2 3.1-11.3 0L109.7 273c-5-5-1.5-13.7 5.7-13.7H200zM480 84c0 6.6-5.4 12-12 12H344V72c0-22.1-17.9-40-40-40h-96c-22.1 0-40 17.9-40 40v24H44c-6.6 0-12-5.4-12-12V-20c0-6.6 5.4-12 12-12h424c6.6 0 12 5.4 12 12V84z"/><glyph glyph-name="lemon" unicode="" d="M489.038 425.037c23.094-23.094 28.892-54.39 16.833-75.093-34.312-58.904 53.078-181.248-86.746-321.07C279.302-110.952 156.959-23.56 98.057-57.87 77.34-69.936 46.042-64.118 22.962-41.038-.13-17.944-5.929 13.352 6.13 34.055c34.313 58.904-53.077 181.248 86.745 321.07 139.828 139.829 262.161 52.43 321.073 86.746 7.027 4.094 15.273 6.129 24.007 6.129 16.994 0 35.83-7.71 51.084-22.963zM478.22 366.05c12.273 21.068-28.189 59.808-48.167 48.17-76.53-44.58-183.11 49.72-314.551-81.723C-15.886 201.11 78.328 94.422 33.782 17.947 21.823-2.58 61.423-42.176 81.951-30.22 158.47 14.352 265.065-79.934 396.5 51.5c131.387 131.387 37.175 238.075 81.72 314.55zm-218.749-29.669c-31.89-7.086-64.973-26.51-93.156-54.694-28.185-28.185-47.609-61.268-54.695-93.157-1.657-7.457-8.271-12.533-15.604-12.533a16.05 16.05 0 00-3.484.385c-8.626 1.917-14.066 10.464-12.149 19.09 8.392 37.756 30.872 76.41 63.307 108.844 32.432 32.433 71.087 54.915 108.843 63.306 8.628 1.919 17.173-3.523 19.09-12.149s-3.526-17.175-12.152-19.092z"/><glyph glyph-name="phone" unicode="" d="M487.8 423.9c14.2-3.2 24.2-15.8 24.2-30.4C512 140.2 306.7-64 54.5-64 39.9-64 27.3-54 24-39.7L.8 61C-2.6 75.7 5 90.7 18.9 96.7l108.4 46.5c12.7 5.5 27.7 1.8 36.5-8.9l44.1-53.9c69.3 34 125.6 90.4 159.6 159.6l-53.9 44.1c-10.7 8.8-14.4 23.8-8.9 36.5l46.5 108.5c6 13.9 21.1 21.5 35.8 18.1zM55.1-32c234.5.3 424.6 190.3 424.8 424.8l-99.6 23-46-107.399 72.8-59.5C358.7 145.701 302.6 89.401 199 40.8l-59.5 72.8-107.4-46z"/><glyph glyph-name="phone-square" unicode="" horiz-adv-x="448" d="M400 416c26.51 0 48-21.49 48-48V16c0-26.51-21.49-48-48-48H48C21.49-32 0-10.51 0 16v352c0 26.51 21.49 48 48 48h352zm16-400v352c0 8.822-7.178 16-16 16H48c-8.822 0-16-7.178-16-16V16c0-8.822 7.178-16 16-16h352c8.822 0 16 7.178 16 16zm-54.867 321.745C374.597 334.639 384 322.818 384 309c0-153.181-123.967-277-277-277-13.816 0-25.636 9.403-28.743 22.867l-13.494 58.501c-3.215 13.924 3.987 28.118 17.125 33.748l62.992 26.998c12.013 5.147 26.18 1.68 34.453-8.435l19.74-24.127c26.815 14.793 60.583 48.56 75.376 75.375l-24.129 19.742c-10.113 8.272-13.58 22.44-8.435 34.45l27 62.996c4.224 9.871 16.363 17.883 27.1 17.883 1.859 0 4.837-.341 6.649-.76zM108.987 64.008c133.948 1.058 241.949 109.303 243.007 243.007l-54.519 12.579-25.435-59.348 42.29-34.602c-29.788-63.487-62.08-94.936-123.973-123.971l-34.602 42.288-59.347-25.435z"/><glyph glyph-name="unlock" unicode="" horiz-adv-x="384" d="M336 192c26.5 0 48-21.5 48-48V-16c0-26.5-21.5-48-48-48H48C21.5-64 0-42.5 0-16v160c0 26.5 21.5 48 48 48h16v96c0 88.4 40 160.3 128.5 160 88.4-.3 127.5-73.1 127.5-161.5V268c0-6.6-5.4-12-12-12h-8c-6.6 0-12 5.4-12 12v20c0 70.6-25.4 128-96 128s-96-57.4-96-128v-96h240zm16-208v160c0 8.8-7.2 16-16 16H48c-8.8 0-16-7.2-16-16V-16c0-8.8 7.2-16 16-16h288c8.8 0 16 7.2 16 16z"/><glyph glyph-name="credit-card" unicode="" horiz-adv-x="576" d="M528 416c26.5 0 48-21.5 48-48V16c0-26.5-21.5-48-48-48H48C21.5-32 0-10.5 0 16v352c0 26.5 21.5 48 48 48h480zM48 384c-8.8 0-16-7.2-16-16v-48h512v48c0 8.8-7.2 16-16 16H48zM528 0c8.8 0 16 7.2 16 16v208H32V16c0-8.8 7.2-16 16-16h480zM192 84v-8c0-6.6-5.4-12-12-12h-72c-6.6 0-12 5.4-12 12v8c0 6.6 5.4 12 12 12h72c6.6 0 12-5.4 12-12zm192 0v-8c0-6.6-5.4-12-12-12H236c-6.6 0-12 5.4-12 12v8c0 6.6 5.4 12 12 12h136c6.6 0 12-5.4 12-12z"/><glyph glyph-name="rss" unicode="" horiz-adv-x="448" d="M80 96c-26.467 0-48-21.533-48-48S53.533 0 80 0s48 21.533 48 48-21.533 48-48 48zm0 32c44.183 0 80-35.817 80-80s-35.817-80-80-80S0 3.817 0 48s35.817 80 80 80zM447.996-19.615C448.179-26.391 442.772-32 435.994-32h-8.007c-6.482 0-11.816 5.146-11.994 11.626-6.048 220.454-183.558 398.317-404.367 404.367C5.146 384.171 0 389.505 0 395.987v8.006c0 6.778 5.61 12.185 12.386 12.002 237.55-6.446 429.162-197.762 435.61-435.61zm-144.245.05c.273-6.792-5.2-12.435-11.998-12.435h-8.005c-6.458 0-11.72 5.114-11.99 11.567-5.89 141.112-119.057 254.301-260.19 260.191-6.453.27-11.568 5.53-11.568 11.99v8.005c0 6.796 5.643 12.271 12.435 11.998 158.109-6.346 284.97-133.184 291.316-291.316z"/><glyph glyph-name="hdd" unicode="" horiz-adv-x="576" d="M566.819 220.623c5.067-6.968 9.18-19.615 9.18-28.231V48c0-26.51-21.49-48-48-48H48C21.49 0 0 21.49 0 48v144.392c0 8.616 4.114 21.263 9.181 28.231l104.443 143.609C121.56 375.143 138.95 384 152.442 384h271.114c13.493 0 30.884-8.857 38.82-19.768zM139.503 345.411L51.204 224h473.592l-88.298 121.411a16.048 16.048 0 01-12.94 6.589H152.444c-4.494-.007-10.291-2.96-12.94-6.589zM544 176c0 8.837-7.163 16-16 16H48c-8.837 0-16-7.163-16-16V48c0-8.823 7.178-16 16-16h480c8.822 0 16 7.177 16 16v128zm-56-64c0-13.255-10.745-24-24-24s-24 10.745-24 24 10.745 24 24 24 24-10.745 24-24zm-64 0c0-13.255-10.745-24-24-24s-24 10.745-24 24 10.745 24 24 24 24-10.745 24-24z"/><glyph glyph-name="bullhorn" unicode="" horiz-adv-x="576" d="M544 263.12c19.05-11.09 32-31.49 31.99-55.12 0-23.63-12.95-44.03-32-55.12V0c0-9.22-7.08-32-32-32-6.193.006-15.144 3.15-19.98 7.02l-85.03 68.03C364.28 77.19 310.66 96 256 96h-28.08c-2.79-10.21-4.41-20.89-4.41-32 0-29.08 9.75-55.92 26.15-77.44 15.79-20.72.15-50.56-25.9-50.56H117.481c-11.88 0-23.21 6.37-28.4 17.06C72.78-13.35 63.52 24.23 63.52 64L64 96c-35.35 0-64 28.65-64 64v96c0 35.349 28.65 64 64 64h192c54.66 0 108.28 18.809 150.99 52.95l85.029 68.03A31.928 31.928 0 00512 448h.01c25.01 0 31.99-23.26 31.99-32V263.12zM223.76-32c-20.94 27.22-32.24 60.71-32.24 96 0 10.57 1.5 21.3 3.81 32H96l-.01-.48-.48-32c.01-33.3 7.53-64.93 22.36-95.49zM64 128h192v160H64c-17.64 0-32-14.36-32-32v-96c0-17.64 14.36-32 32-32zM512.05 1.07L512 415.99c-.01-.12-.03-.17-.07-.17-.02 0-.05.02-.08.05l-84.87-67.9C386.99 316 338.54 296.14 288 290.13V125.87c50.54-6.01 98.99-25.87 138.97-57.83L511.8.17c.12.32.21.65.25.9z"/><glyph glyph-name="certificate" unicode="" d="M495.768 175.708c30.04-28.786 16.251-79.538-23.831-89.367l-22.767-5.81 6.464-22.699c11.15-39.941-25.976-76.536-65.449-65.45l-22.672 6.46-5.807-22.766c-9.898-40.426-61.195-53.646-89.452-23.746L256-31.05l-16.338-16.708C211.16-77.53 160.225-64.5 150.295-23.922L144.49-1.155l-22.672-6.461c-39.195-10.979-76.67 25.247-65.45 65.45l6.464 22.698-22.767 5.81c-40.081 9.829-53.87 60.58-23.83 89.366l16.719 16.362-16.72 16.363c-30.04 28.786-16.25 79.538 23.831 89.365l22.767 5.811-6.464 22.698c-11.229 40.226 26.308 76.442 65.449 65.45l22.672-6.461 5.806 22.768c9.87 40.307 61.082 53.44 89.406 23.793l16.3-16.79 16.3 16.791c28.59 29.928 79.626 16.09 89.404-23.783l5.808-22.778 22.672 6.46c39.334 11.018 76.682-25.453 65.45-65.45l-6.465-22.698 22.768-5.811c40.081-9.828 53.87-60.58 23.83-89.365l-16.719-16.362zm-31.567-58.313c15.738 3.765 21.32 23.946 9.331 35.298l-40.237 39.379 40.237 39.379c11.995 11.353 6.401 31.534-9.331 35.296l-54.82 13.99L424.836 335c4.367 15.609-10.35 30.33-25.953 25.962l-54.245-15.458-13.986 54.837c-3.702 15.487-24.106 21.15-35.285 9.334L256 369.127l-39.366 40.548c-11.052 11.683-31.542 6.33-35.286-9.334l-13.985-54.837-54.245 15.458c-15.608 4.37-30.32-10.356-25.953-25.961l15.453-54.264-54.82-13.991c-15.738-3.764-21.32-23.947-9.33-35.296l40.237-39.38-40.237-39.378c-11.996-11.356-6.402-31.535 9.33-35.298l54.82-13.99L87.165 49.14c-4.367-15.607 10.35-30.33 25.953-25.962l54.245 15.458L181.348-16.2c3.886-16.253 24.235-21.014 35.286-9.334L256 14.716l39.365-40.25c10.938-11.801 31.488-6.55 35.285 9.334l13.987 54.837 54.245-15.458c15.607-4.37 30.319 10.358 25.953 25.962l-15.453 54.264z"/><glyph glyph-name="hand-point-right" unicode="" d="M441.6 300.8c37.63 0 70.4-32.24 70.4-70.4 0-38.484-32.063-70.4-70.4-70.4h-56.815c-.01-.35-.02-.703-.034-1.054-.537-14.187-4.656-27.726-11.884-39.582 4.643-23.338-2.335-48.386-16.635-65.494C357.857 4.084 327.206-32 267.6-32h-23.235c-54.11 0-90.454 34.281-125.103 42.038C113.428 3.862 105.167 0 96 0H32C14.327 0 0 14.327 0 32v224c0 17.673 14.327 32 32 32h64c11.62 0 21.792-6.194 27.398-15.459 18.05 10.075 49.857 49.383 60.92 67.144C198.2 362.148 207.453 416 256 416c41.314 0 73.6-29.922 73.6-70.4 0-17.79-4.354-32.61-9.792-44.8H441.6zM32 256V32h64v224H32zm409.6-64c20.7 0 38.4 17.7 38.4 38.4 0 20.4-18.3 38.4-38.4 38.4H268.8c0 18.9 28.8 38.4 28.8 76.8C297.6 368 280 384 256 384s-28.704-35.685-44.502-61.2c-14.595-23.444-53.665-72.556-83.5-83.262V40.861C167.678 31.266 200.025 0 244.362 0h23.236c44.208 0 62.317 24.215 55.2 66.9 15.942 8.729 26.349 37.069 14.101 58.5 21.126 19.882 19.404 50.597 5.4 66.6h99.3zM84 64c0-11.046-8.954-20-20-20s-20 8.954-20 20 8.954 20 20 20 20-8.954 20-20z"/><glyph glyph-name="hand-point-left" unicode="" d="M0 230.4c0 38.16 32.77 70.4 70.4 70.4h121.791c-5.437 12.189-9.79 27.01-9.79 44.8 0 40.478 32.285 70.4 73.599 70.4 48.546 0 57.8-53.853 71.684-76.316 11.061-17.76 42.868-57.068 60.918-67.143C394.208 281.805 404.38 288 416 288h64c17.673 0 32-14.328 32-32V32c0-17.673-14.327-32-32-32h-64c-9.167 0-17.428 3.86-23.26 10.038C358.088 2.28 321.746-32 267.635-32H244.4c-59.606 0-90.257 36.084-88.632 85.87-14.3 17.107-21.278 42.155-16.635 65.494-7.23 11.854-11.348 25.394-11.885 39.582-.012.35-.024.703-.033 1.054H70.4C32.063 160 0 191.916 0 230.4zM480 32v224h-64V32h64zM32 230.4c0-20.7 17.7-38.4 38.4-38.4h99.3c-14.005-16.003-15.726-46.718 5.399-66.6-12.247-21.433-1.84-49.772 14.1-58.5C182.083 24.215 200.192 0 244.4 0h23.236C311.974 0 344.32 31.266 384 40.86v198.678c-29.835 10.706-68.905 59.82-83.5 83.262C284.704 348.314 280 384 256 384s-41.6-16-41.6-38.4c0-38.4 28.8-57.9 28.8-76.8H70.4c-20.1 0-38.4-18-38.4-38.4zM448 84c11.046 0 20-8.954 20-20s-8.954-20-20-20-20 8.954-20 20 8.954 20 20 20z"/><glyph glyph-name="hand-point-up" unicode="" horiz-adv-x="448" d="M115.2 377.6c0 37.63 32.24 70.4 70.4 70.4 38.484 0 70.4-32.063 70.4-70.4v-56.815c.29-.008.762-.023 1.054-.034 14.187-.537 27.726-4.656 39.582-11.884 23.338 4.643 48.386-2.335 65.494-16.635C411.916 293.857 448 263.206 448 203.6v-23.235c0-54.11-34.281-90.454-42.038-125.103C412.138 49.428 416 41.167 416 32v-64c0-17.673-14.327-32-32-32H160c-17.673 0-32 14.327-32 32v64c0 11.62 6.194 21.792 15.459 27.398-10.075 18.05-49.383 49.857-67.144 60.92C53.852 134.2 0 143.453 0 192c0 41.313 29.922 73.6 70.4 73.598 17.79 0 32.61-4.353 44.8-9.79v121.791zM160-32h224v64H160v-64zm64 409.6c0 20.7-17.7 38.4-38.4 38.4-20.4 0-38.4-18.3-38.4-38.4V204.8c-18.9 0-38.4 28.8-76.8 28.8C48 233.6 32 216 32 192s35.685-28.704 61.2-44.502c23.444-14.595 72.556-53.665 83.262-83.5h198.677C384.734 103.678 416 136.026 416 180.362v23.236c0 44.208-24.215 62.317-66.9 55.2-8.729 15.942-37.069 26.349-58.5 14.101-19.882 21.126-50.597 19.404-66.6 5.4v99.3zM352 20c11.046 0 20-8.954 20-20s-8.954-20-20-20-20 8.954-20 20 8.954 20 20 20z"/><glyph glyph-name="hand-point-down" unicode="" horiz-adv-x="448" d="M185.6-64c-38.16 0-70.4 32.77-70.4 70.4v121.791c-12.189-5.437-27.01-9.79-44.8-9.79C29.923 118.4 0 150.685 0 192c0 48.546 53.853 57.8 76.316 71.684 17.76 11.061 57.068 42.869 67.143 60.918C134.195 330.208 128 340.38 128 352v64c0 17.673 14.328 32 32 32h224c17.673 0 32-14.327 32-32v-64c0-9.167-3.86-17.428-10.038-23.26C413.72 294.088 448 257.746 448 203.635V180.4c0-59.606-36.084-90.257-85.87-88.632-17.107-14.3-42.155-21.278-65.494-16.635-11.854-7.23-25.394-11.348-39.582-11.885-.35-.012-.703-.024-1.054-.033V6.4c0-38.337-31.916-70.4-70.4-70.4zM384 416H160v-64h224v64zM185.6-32C206.3-32 224-14.3 224 6.4v99.3c16.003-14.005 46.718-15.726 66.6 5.399 21.433-12.247 49.772-1.84 58.5 14.1 42.685-7.116 66.9 10.993 66.9 55.201v23.236c0 44.338-31.266 76.684-40.86 116.364H176.461c-10.706-29.835-59.82-68.905-83.262-83.5C67.686 220.704 32 216 32 192s16-41.6 38.4-41.6c38.4 0 57.9 28.8 76.8 28.8V6.4c0-20.1 18-38.4 38.4-38.4zM332 384c0 11.046 8.954 20 20 20s20-8.954 20-20-8.954-20-20-20-20 8.954-20 20z"/><glyph glyph-name="arrow-circle-left" unicode="" d="M504 192C504 55 393-56 256-56S8 55 8 192s111 248 248 248 248-111 248-248zM256-24c119.9 0 216 97.3 216 216 0 119.9-97.3 216-216 216-119.9 0-216-97.3-216-216C40 72.1 137.3-24 256-24zm-12.5 92.5l-115.1 115c-4.7 4.7-4.7 12.3 0 17l115.1 115c4.7 4.7 12.3 4.7 17 0l6.9-6.9c4.7-4.7 4.7-12.5-.2-17.1L181.7 209H372c6.6 0 12-5.4 12-12v-10c0-6.6-5.4-12-12-12H181.7l85.6-82.5c4.8-4.7 4.9-12.4.2-17.1l-6.9-6.9c-4.8-4.7-12.4-4.7-17.1 0z"/><glyph glyph-name="arrow-circle-right" unicode="" d="M8 192c0 137 111 248 248 248s248-111 248-248S393-56 256-56 8 55 8 192zm248 216c-119.9 0-216-97.3-216-216C40 72.1 137.3-24 256-24c119.9 0 216 97.3 216 216 0 119.9-97.3 216-216 216zm12.5-92.5l115.1-115c4.7-4.7 4.7-12.3 0-17l-115.1-115c-4.7-4.7-12.3-4.7-17 0l-6.9 6.9c-4.7 4.7-4.7 12.5.2 17.1l85.6 82.5H140c-6.6 0-12 5.4-12 12v10c0 6.6 5.4 12 12 12h190.3l-85.6 82.5c-4.799 4.7-4.9 12.4-.2 17.1l6.901 6.9c4.8 4.7 12.4 4.7 17.1 0z"/><glyph glyph-name="arrow-circle-up" unicode="" d="M256-56C119-56 8 55 8 192s111 248 248 248 248-111 248-248S393-56 256-56zM40 192C40 72.1 137.3-24 256-24c119.9 0 216 97.3 216 216 0 119.9-97.3 216-216 216-119.9 0-216-97.3-216-216zm92.5 12.5l115 115.1c4.7 4.7 12.3 4.7 17 0l115-115.1c4.7-4.7 4.7-12.3 0-17l-6.9-6.9c-4.7-4.7-12.5-4.7-17.1.2L273 266.3V76c0-6.6-5.4-12-12-12h-10c-6.6 0-12 5.4-12 12v190.3l-82.5-85.6c-4.7-4.8-12.4-4.9-17.1-.2l-6.9 6.9c-4.7 4.8-4.7 12.4 0 17.1z"/><glyph glyph-name="arrow-circle-down" unicode="" d="M256 440c137 0 248-111 248-248S393-56 256-56 8 55 8 192s111 248 248 248zm216-248c0 119.9-97.3 216-216 216-119.9 0-216-97.3-216-216C40 72.1 137.3-24 256-24c119.9 0 216 97.3 216 216zm-92.5 4.5c4.7-4.7 4.7-12.3 0-16.9l-115-115.1c-4.7-4.7-12.3-4.7-17 0l-115 115.1c-4.7 4.7-4.7 12.3 0 17l6.9 6.9c4.7 4.7 12.4 4.6 17.1-.2l82.5-85.6V308c0 6.6 5.4 12 12 12h10c6.6 0 12-5.4 12-12V117.7l82.5 85.5c4.6 4.9 12.4 4.9 17.1.2z"/><glyph glyph-name="globe" unicode="" horiz-adv-x="496" d="M248 440c137 0 248-111 248-248S385-56 248-56 0 55 0 192s111 248 248 248zm193.2-152c-25.5 51.2-70.7 90.9-125.7 109.1 19.1-26.9 34.2-64.7 43.2-109.1h82.5zM336 192c0 22.9-1.6 44.2-4.3 64H164.3c-2.7-19.8-4.3-41.1-4.3-64s1.6-44.2 4.3-64h167.4c2.7 19.8 4.3 41.1 4.3 64zm-88 216c-26.9 0-61.4-44.1-78.1-120h156.2c-16.7 75.9-51.2 120-78.1 120zm-67.5-10.9c-55-18.2-100.2-57.9-125.7-109.1h82.5c9 44.5 24.2 82.3 43.2 109.1zM32 192c0-22.3 3.4-43.8 9.7-64h90.5c-2.7 20.5-4.2 41.8-4.2 64s1.6 43.5 4.2 64H41.7c-6.3-20.2-9.7-41.7-9.7-64zm22.8-96C80.3 44.8 125.5 5.1 180.5-13.1 161.4 13.8 146.3 51.6 137.3 96H54.8zM248-24c26.9 0 61.4 44.1 78.1 120H169.9C186.6 20.1 221.1-24 248-24zm67.5 10.9C370.5 5.1 415.7 44.8 441.2 96h-82.5c-9-44.5-24.2-82.3-43.2-109.1zM363.8 128h90.5c6.3 20.2 9.7 41.7 9.7 64s-3.4 43.8-9.7 64h-90.5c2.7-20.5 4.2-41.8 4.2-64s-1.6-43.5-4.2-64z"/><glyph glyph-name="wrench" unicode="" d="M507.42 333.51c12.94-51.93-1.93-105.51-39.74-143.319-38.09-38.1-92.86-52.55-144.89-38.82L129.65-41.74C115.309-56.09 96.25-64 75.94-64c-20.31 0-39.4 7.91-53.75 22.26-29.591 29.62-29.591 77.82 0 107.45L215.519 259c-13.59 52.18.78 106.83 38.62 144.7 37.81 37.76 91.46 52.61 143.19 39.78 9.56-2.37 17.13-9.73 19.75-19.2 2.62-9.45-.06-19.62-7-26.54l-63.87-63.87 7.38-44.24 44.25-7.36 63.87 63.87c7 6.98 17.18 9.59 26.65 6.98 9.4-2.63 16.72-10.14 19.06-19.61zm-62.36-120.7c27.74 27.75 39.8 66.29 33.08 104.54L408.84 248l-83.06 13.82-13.81 83.02 69.31 69.35a119.21 119.21 0 01-20.72 1.81c-31.12 0-61.08-12.2-83.79-34.92-31.59-31.61-42.34-78.22-28.03-121.67l3.09-9.34L44.82 43.09c-17.12-17.149-17.12-45.07 0-62.21 16.62-16.62 45.59-16.62 62.21 0l206.88 206.84 9.38-3.139c43.34-14.4 89.9-3.58 121.77 28.23zM80 32c8.84 0 16-7.16 16-16S88.84 0 80 0 64 7.16 64 16s7.16 16 16 16z"/><glyph glyph-name="tasks" unicode="" d="M145.35 241l11.31-11.34c1.295-1.294 2.346-3.829 2.346-5.66s-1.05-4.366-2.346-5.66l-88-88c-1.292-1.292-3.827-2.34-5.655-2.34s-4.361 1.048-5.655 2.34l-56 56C.055 187.634-.996 190.169-.996 192s1.051 4.366 2.346 5.66L12.69 209c1.294 1.292 3.827 2.34 5.655 2.34S22.707 210.293 24 209l39-39 71 71c1.295 1.304 3.838 2.361 5.675 2.361 1.838 0 4.38-1.057 5.675-2.361zM62.93 64c17.664 0 32-14.336 32-32s-14.336-32-32-32c-17.67 0-32.4 14.33-32.4 32s14.73 32 32.4 32zm82.42 337l11.31-11.34c1.295-1.294 2.346-3.829 2.346-5.66s-1.05-4.366-2.346-5.66l-88-88c-1.292-1.292-3.827-2.34-5.655-2.34s-4.361 1.048-5.655 2.34l-56 56C.055 347.634-.996 350.169-.996 352s1.051 4.366 2.346 5.66L12.69 369c1.294 1.292 3.827 2.34 5.655 2.34S22.707 370.293 24 369l39-39 71 71c1.295 1.304 3.838 2.361 5.675 2.361 1.838 0 4.38-1.057 5.675-2.361zM503 48c4.416 0 8-3.584 8-8V24c0-4.416-3.584-8-8-8H199c-4.416 0-8 3.584-8 8v16c0 4.416 3.584 8 8 8h304zm0 320c4.416 0 8-3.584 8-8v-16c0-4.416-3.584-8-8-8H199c-4.416 0-8 3.584-8 8v16c0 4.416 3.584 8 8 8h304zm0-160c4.416 0 8-3.584 8-8v-16c0-4.416-3.584-8-8-8H199c-4.416 0-8 3.584-8 8v16c0 4.416 3.584 8 8 8h304z"/><glyph glyph-name="filter" unicode="" d="M479.968 448c28.482 0 42.727-34.528 22.627-54.627L320 210.745V-31.984c0-27.762-32.634-41.965-53.072-24.082l-64 55.983C196.895 5.195 192 15.983 192 23.998v186.746L9.41 393.372C-10.729 413.512 3.613 448 32.038 448h447.93zM288 224l192 192H32l192-192V24l64-56v256z"/><glyph glyph-name="briefcase" unicode="" d="M464 320c26.51 0 48-21.49 48-48V16c0-26.51-21.49-48-48-48H48C21.49-32 0-10.51 0 16v256c0 26.51 21.49 48 48 48h112v72c0 13.26 10.74 24 24 24h144c13.26 0 24-10.74 24-24v-72h112zm-272 64v-64h128v64H192zM480 16v144H320v-40c0-13.25-10.75-24-24-24h-80c-13.25 0-24 10.75-24 24v40H32V16c0-8.82 7.18-16 16-16h416c8.82 0 16 7.18 16 16zM224 128h64v32h-64v-32zm256 64v80c0 8.82-7.18 16-16 16H48c-8.82 0-16-7.18-16-16v-80h448z"/><glyph glyph-name="arrows-alt" unicode="" d="M502.3 215.3c12.9-12.9 12.9-33.7.1-46.6l-66.5-66.5c-20.8-20.8-56.3-6-56.3 23.3V176H272V68.4h50.5c29.3 0 44-35.6 23.3-56.3l-66.5-66.5c-12.8-12.9-33.7-12.9-46.6 0l-66.5 66.5c-20.8 20.8-6 56.3 23.3 56.3H240V176H132.5v-50.5c0-29.3-35.6-44-56.3-23.3L9.7 168.7c-12.9 12.8-12.9 33.7 0 46.6l66.4 66.5c20.8 20.8 56.3 6 56.3-23.3V208H240v107.5h-50.5c-29.3 0-44 35.6-23.3 56.3l66.5 66.5c12.8 12.9 33.7 12.9 46.6 0l66.5-66.4c20.8-20.8 6-56.3-23.3-56.3H272V208h107.5v50.5c0 29.3 35.6 44 56.3 23.3zm-398.7-89.8v133c0 3.6-4.4 5.5-7 2.9l-66.5-66.5c-1.6-1.6-1.6-4.2 0-5.8l66.5-66.5c2.6-2.6 7-.8 7 2.9zm218.9-85.9h-133c-3.6 0-5.5-4.4-2.9-7l66.5-66.5c1.6-1.6 4.2-1.6 5.8 0l66.5 66.5c2.6 2.6.8 7-2.9 7zm-133 304.8h133c3.6 0 5.5 4.4 2.9 7l-66.5 66.5c-1.6 1.6-4.2 1.6-5.8 0l-66.5-66.5c-2.6-2.6-.8-7 2.9-7zm292.4-155.3c1.7 1.6 1.7 4.2 0 5.7l-66.5 66.5c-2.6 2.6-7 .8-7-2.9V125.5c0-3.599 4.4-5.5 7-2.9z"/><glyph glyph-name="users" unicode="" horiz-adv-x="640" d="M544 224c-44.2 0-80 35.8-80 80s35.8 80 80 80 80-35.8 80-80-35.8-80-80-80zm0 128c-26.5 0-48-21.5-48-48s21.5-48 48-48 48 21.5 48 48-21.5 48-48 48zM320 192c-61.9 0-112 50.1-112 112s50.1 112 112 112 112-50.1 112-112-50.1-112-112-112zm0 192c-44.1 0-80-35.9-80-80s35.9-80 80-80 80 35.9 80 80-35.9 80-80 80zm244-192c41.9 0 76-35.9 76-80 0-8.8-7.2-16-16-16s-16 7.2-16 16c0 26.5-19.8 48-44 48h-40c-5.5 0-10.8-1.2-15.7-3.3-7.5 8.5-16 16-25.4 22.4 11.8 8.1 25.9 12.9 41.1 12.9h40zM96 224c-44.2 0-80 35.8-80 80s35.8 80 80 80 80-35.8 80-80-35.8-80-80-80zm0 128c-26.5 0-48-21.5-48-48s21.5-48 48-48 48 21.5 48 48-21.5 48-48 48zm304.1-180c36.3 0 71.6-16.2 92.3-46.9 12.4-18.4 19.6-40.5 19.6-64.3V16c0-26.5-21.5-48-48-48H176c-26.5 0-48 21.5-48 48v44.8c0 23.8 7.2 45.9 19.6 64.3 20.7 30.7 56 46.9 92.3 46.9 33.4 0 41.7-12 80.1-12s46.7 12 80.1 12zM480 16h-.1v44.8c0 16.6-4.9 32.7-14.1 46.4-13.8 20.5-38.4 32.8-65.7 32.8-27.3 0-37.1-12-80.1-12s-52.8 12-80.2 12c-27.3 0-51.9-12.3-65.7-32.8-9.2-13.7-14.1-29.8-14.1-46.4V16c0-8.8 7.2-16 16-16h288c8.8 0 16 7.2 16 16zM157.1 179.1c-9.3-6.4-17.9-13.9-25.4-22.4-4.9 2.1-10.2 3.3-15.7 3.3H76c-24.2 0-44-21.5-44-48 0-8.8-7.2-16-16-16s-16 7.2-16 16c0 44.1 34.1 80 76 80h40c15.1 0 29.2-4.8 41.1-12.9z"/><glyph glyph-name="link" unicode="" d="M301.148 53.298l-79.2-79.19c-50.778-50.8-133.037-50.824-183.84 0-50.8 50.778-50.824 133.036 0 183.84l79.19 79.2c.957.958 2.54 2.482 3.532 3.403 7.55 7.005 19.794 2.004 20.208-8.286.193-4.807.597-9.607 1.215-14.384.482-3.717-.746-7.447-3.396-10.096-16.48-16.468-75.143-75.128-75.3-75.286-36.738-36.759-36.731-96.188 0-132.94 36.759-36.737 96.188-36.73 132.94 0l79.2 79.2.359.36c36.301 36.673 36.14 96.071-.37 132.58a93.41 93.41 0 01-27.585 19.11c-4.566 2.066-7.426 6.666-7.134 11.67.25 4.309 1.516 11.146 2.826 15.259 2.103 6.6 9.531 9.96 15.919 7.28 15.073-6.324 29.187-15.62 41.435-27.868 50.688-50.69 50.679-133.171 0-183.852zm-90.296 93.554c-50.688 50.688-50.679 133.17 0 183.852l79.2 79.19c50.778 50.8 133.038 50.824 183.84 0 50.8-50.778 50.824-133.036 0-183.84l-79.19-79.2c-.956-.958-2.54-2.482-3.532-3.403-7.548-7.005-19.794-2.005-20.208 8.286-.16 3.984-.704 10.429-1.215 14.384-.482 3.717.746 7.446 3.396 10.096 16.482 16.468 75.144 75.128 75.3 75.286 36.738 36.758 36.731 96.188 0 132.94-36.759 36.737-96.188 36.73-132.94 0l-79.2-79.2-.359-.36c-36.301-36.673-36.14-96.071.37-132.58 8.214-8.216 17.577-14.582 27.585-19.11 4.565-2.066 7.426-6.666 7.134-11.67-.25-4.309-1.516-11.146-2.826-15.259-2.103-6.6-9.531-9.96-15.919-7.28-15.073 6.324-29.187 15.62-41.435 27.868z"/><glyph glyph-name="cloud" unicode="" horiz-adv-x="640" d="M571.7 209.2C614.2 186.8 640 143 640 96c0-70.8-57.3-128-128-128H144C64.4-32 0 32.4 0 112c0 61.7 39.2 115.8 96.2 135.8C100.3 341.5 177.6 416 272 416c59.7 0 112.4-29.8 144-74.8 15.1 7.2 31.3 10.8 48 10.8 61.9 0 112-50.1 112-112 0-10.6-1.5-20.9-4.3-30.8zM512 0c53 0 96 43 96 96 0 47.9-35 87.6-80.9 94.8 10.6 13.6 16.9 30.7 16.9 49.2 0 44.2-35.8 80-80 80-23.2 0-44-9.9-58.6-25.6C383.9 347 332.3 384 272 384c-79.5 0-144-64.5-144-144 0-5.7.3-11.4 1-17-54.8-7.3-97-54.2-97-111C32 50.1 82.1 0 144 0h368z"/><glyph glyph-name="flask" unicode="" horiz-adv-x="448" d="M434.9 37.3C466.6-4.2 437.1-64 384.9-64H63.099c-52.1 0-81.7 59.8-50 101.3l146.9 192.1V416h-26c-3.3 0-6 2.701-6 6v20c0 3.3 2.7 6 6 6h180c3.3 0 6-2.7 6-6v-20c0-3.299-2.7-6-6-6h-26V229.4zm-50-69.3c25.8 0 40.2 29.4 24.6 49.8L259.3 214.3c-2.1 2.8-3.3 6.2-3.3 9.7v192h-64V224c0-3.5-1.2-6.9-3.3-9.7L38.5 17.8C22.8-2.6 37.4-32 63.1-32h321.8z"/><glyph glyph-name="cut" unicode="" horiz-adv-x="448" d="M249.52 192L446.831-5.17c.646-.646 1.17-1.912 1.17-2.825s-.524-2.179-1.17-2.825c-12.49-12.5-32.75-12.5-45.25 0L224.06 166.56l-48.64-48.61C185.88 102.57 192 84 192 64c0-53.02-42.98-96-96-96S0 10.98 0 64s42.981 96 96 96c20.01 0 38.58-6.12 53.96-16.6l48.63 48.6-48.63 48.6C134.58 230.12 116.01 224 96 224c-53.019 0-96 42.98-96 96s42.981 96 96 96 96-42.98 96-96c0-20-6.12-38.57-16.58-53.95l48.64-48.61 177.521 177.38c12.49 12.5 32.75 12.5 45.25 0 .646-.646 1.17-1.912 1.17-2.825s-.524-2.179-1.17-2.825zM96 256c35.29 0 64 28.71 64 64s-28.71 64-64 64-64-28.71-64-64 28.71-64 64-64zM96 0c35.29 0 64 28.71 64 64s-28.71 64-64 64-64-28.71-64-64S60.71 0 96 0z"/><glyph glyph-name="copy" unicode="" horiz-adv-x="448" d="M433.941 382.059c7.76-7.76 14.059-22.966 14.059-33.94V80c0-26.51-21.49-48-48-48h-80v-48c0-26.51-21.49-48-48-48H48C21.49-64 0-42.51 0-16v320c0 26.51 21.49 48 48 48h80v48c0 26.51 21.49 48 48 48h172.118c10.974 0 26.18-6.3 33.94-14.059zM352 415.509V352h63.508c-.586 2.374-2.465 5.703-4.195 7.43l-51.882 51.885c-1.728 1.73-5.057 3.608-7.431 4.194zM288-16v48H176c-26.51 0-48 21.49-48 48v240H48c-8.822 0-16-7.178-16-16V-16c0-8.822 7.178-16 16-16h224c8.822 0 16 7.178 16 16zm128 96v240h-72c-13.2 0-24 10.8-24 24v72H176c-8.822 0-16-7.178-16-16V80c0-8.822 7.178-16 16-16h224c8.822 0 16 7.178 16 16z"/><glyph glyph-name="paperclip" unicode="" d="M149.106-64c-33.076 0-66.153 12.59-91.333 37.772-50.364 50.36-50.364 132.305-.002 182.663l262.07 262.066c39.331 39.332 103.328 39.332 142.66 0 39.331-39.332 39.331-103.327 0-142.657L239.871 53.218c-28.297-28.3-74.347-28.302-102.65 0-28.3 28.301-28.3 74.35 0 102.65l170.302 170.297c4.686 4.686 12.283 4.686 16.97 0l5.66-5.66c4.686-4.686 4.686-12.285 0-16.971l-170.3-170.297c-15.82-15.822-15.82-41.564.002-57.386 15.82-15.82 41.563-15.82 57.385 0l222.63 222.626c26.85 26.852 26.85 70.541 0 97.394-26.856 26.851-70.544 26.85-97.396 0L80.404 133.803c-37.882-37.881-37.882-99.518 0-137.4 37.884-37.88 99.523-37.881 137.403 0L435.55 214.14c4.687 4.687 12.284 4.687 16.97 0l5.661-5.66c4.687-4.686 4.687-12.284 0-16.971L240.44-26.228C215.26-51.41 182.182-64 149.106-64z"/><glyph glyph-name="save" unicode="" horiz-adv-x="448" d="M433.941 318.059c7.76-7.76 14.059-22.966 14.059-33.94V16c0-26.51-21.49-48-48-48H48C21.49-32 0-10.51 0 16v352c0 26.51 21.49 48 48 48h268.118c10.974 0 26.18-6.3 33.94-14.059zM288 384H96v-96h192v96zM416 16v268.162c0 3.648-2.1 8.697-4.686 11.27l-83.882 83.882c-1.729 1.73-5.058 3.609-7.432 4.195v-103.51c0-13.254-10.745-24-24-24H88c-13.255 0-24 10.746-24 24v104H48c-8.822 0-16-7.177-16-16V16c0-8.822 7.178-16 16-16h352c8.822 0 16 7.178 16 16zM224 216c48.523 0 88-39.477 88-88s-39.477-88-88-88-88 39.477-88 88 39.477 88 88 88zm0-144c30.879 0 56 25.121 56 56s-25.121 56-56 56-56-25.121-56-56 25.121-56 56-56z"/><glyph glyph-name="square" unicode="" horiz-adv-x="448" d="M400 416c26.5 0 48-21.5 48-48V16c0-26.5-21.5-48-48-48H48C21.5-32 0-10.5 0 16v352c0 26.5 21.5 48 48 48h352zm16-400v352c0 8.8-7.2 16-16 16H48c-8.8 0-16-7.2-16-16V16c0-8.8 7.2-16 16-16h352c8.8 0 16 7.2 16 16z"/><glyph glyph-name="bars" unicode="" horiz-adv-x="448" d="M442 334H6c-3.312 0-6 2.688-6 6v24c0 3.312 2.688 6 6 6h436c3.312 0 6-2.688 6-6v-24c0-3.312-2.688-6-6-6zm0-160H6c-3.312 0-6 2.688-6 6v24c0 3.312 2.688 6 6 6h436c3.312 0 6-2.688 6-6v-24c0-3.312-2.688-6-6-6zm0-160H6c-3.312 0-6 2.688-6 6v24c0 3.312 2.688 6 6 6h436c3.312 0 6-2.688 6-6V20c0-3.312-2.688-6-6-6z"/><glyph glyph-name="list-ul" unicode="" d="M32.39 224c17.664 0 32-14.336 32-32s-14.336-32-32-32C14.73 160 0 174.33 0 192s14.73 32 32.39 32zm0 160c17.664 0 32-14.336 32-32s-14.336-32-32-32C14.73 320 0 334.33 0 352s14.73 32 32.39 32zm0-320c17.664 0 32-14.336 32-32s-14.336-32-32-32C14.73 0 0 14.33 0 32s14.73 32 32.39 32zM504 368c4.416 0 8-3.584 8-8v-16c0-4.416-3.584-8-8-8H136c-4.416 0-8 3.584-8 8v16c0 4.416 3.584 8 8 8h368zm0-160c4.416 0 8-3.584 8-8v-16c0-4.416-3.584-8-8-8H136c-4.416 0-8 3.584-8 8v16c0 4.416 3.584 8 8 8h368zm0-160c4.416 0 8-3.584 8-8V24c0-4.416-3.584-8-8-8H136c-4.416 0-8 3.584-8 8v16c0 4.416 3.584 8 8 8h368z"/></font>
</defs>
</svg>
